<?xml version="1.0" encoding="utf-8"?>
<!-- Generator: Adobe Illustrator 21.0.0, SVG Export Plug-In . SVG Version: 6.00 Build 0)  -->
<svg version="1.1" id="Layer_1" xmlns="http://www.w3.org/2000/svg" xmlns:xlink="http://www.w3.org/1999/xlink" x="0px" y="0px"
	 viewBox="0 0 152 51" style="enable-background:new 0 0 152 51;" xml:space="preserve">
<g>
	<path d="M0.3,45.3l-0.3,0.2L0,45.3H0.3z M0.1,45.4L0,45.6L0.1,45.4L0.1,45.4L0.1,45.4z M0.8,47l-0.1,0.3l-0.3,0.1L0,47.2l0.4-0.1
		L0.8,47L0.8,47z M0.5,48l0.2,0.4l-0.3,0.3v-0.4L0.5,48z M12.4,40.3l0.1,0.4L12.3,41L12,41.3L11.6,41l-0.4-0.1l-0.1,0.2l0.4,0.2
		l-0.3,0.5l0.1,0.3l0.1-0.2l0.3-0.4l0.4,0.4l0.4,0.1v0.4L12.4,43L12,43.2l0.2-0.1l0.3,0.3l0.2,0.4l-0.2,0.5l-0.1,0.1l0.2,0.3
		l-0.1,0.4l-0.3,0.4L12,45.7l0.1,0.1l0.5,0.3l-0.1,0.2l0.1-0.1l0.3-0.3l0.4-0.1l0.2,0.1l-0.1-0.1L13,45.7l-0.2-0.4l0.1-0.4l0.4-0.3
		l0.5-0.1l0.4,0.4l0.1,0.2l0.1-0.3l0.6-0.1l0.3,0.4l0.3,0.3v0.1h0.3l0.5,0.3l0.3,0.4l-0.1,0.1l0.4,0.1l0.2,0.4l-0.8,0.6l-0.1-0.1
		l-0.1,0.1l-0.4,0.2h0.2l0.3,0.6l-0.5,0.4h-0.5l-0.3-0.1l-0.2-0.4l0.1-0.4l0.5-0.1l-0.1-0.1l-0.5-0.1l-0.3-0.4L14.2,47v0.3l-0.4,0.3
		l-0.4,0.1L13,47.7l-0.4-0.2l-0.3-0.2l-0.5,0.1l-0.4,0.1l-0.5,0.1l-0.3,0.1l-0.4-0.1l-0.2,0l0.5,0.1h0.4l0.4,0.3l-0.3,0.4l-0.1,0.4
		l-0.4,0.4L10,48.9l-0.5-0.3l0.3-0.4l0.1-0.4H9.7l-0.2-0.4L9.3,47l0,0.1l0.3,0.4l-0.3,0.4L9.2,48l0.4,0.4l-0.3,0.4L9,49.1l-0.4,0.1
		l-0.5,0.1l-0.3-0.4l0.1-0.5l0.2-0.1L8,48.2L7.6,48l-0.3-0.4l0.1-0.2l-0.1,0l-0.5-0.1l-0.1-0.3l-0.3,0.3l-0.1,0.3l0.3-0.2l0.4,0.1
		L7.2,48l0.1,0.4L7,48.7l-0.3,0.1l-0.4-0.1l-0.5-0.2l0.1-0.2l-0.4,0.2l-0.3,0.3l-0.5-0.1l-0.3-0.3l-0.2,0.3L4,49.4l-0.5-0.3
		l-0.6-0.2L3,48.3L3.4,48l0.4-0.1l0.3-0.1H3.9L3.4,48L3,47.6l-0.3-0.3l-0.2,0.3L2,47.8l-0.5-0.3L1.5,47l-0.4-0.3l0.1-0.5L1.7,46
		l0.5-0.1L2.7,46l0.1,0.2l0.2-0.3l-0.1-0.1l-0.3-0.3L2.4,45l0.4-0.4l0.5-0.1l0.5,0.2l0.1,0.4v0.3l-0.2,0.3l0.7,0.1l0.3,0.4l0.1,0.4
		v0.1l0.2-0.3l0.3-0.3L4.9,46l-0.3-0.5l0.2-0.5l0.6-0.1l0.5-0.3l0.5,0.3V45l0.2-0.4l-0.3-0.5l0.3-0.4l0.1-0.5l0.8,0.4l0.2,0.3
		l0.3,0.4l-0.4,0.1l0.1,0.1L8,44.6l0.1-0.1L8,44.4l-0.1-0.5l-0.1-0.4L8,43.1l0.5-0.1v-0.1l-0.1-0.1H7.9l-0.2-0.5L8,41.8l0.2-0.3
		l0.4-0.4H8.5L8.1,41l-0.3-0.4l0.1-0.4l0.3-0.4l0.5-0.1l0.5-0.3l0.3,0.4L9.5,40l0.1-0.1l0.1-0.2l0-0.1l-0.5-0.3l0.3-0.4L9.1,39
		l-0.3,0.3H8.4l-0.5-0.1L8,38.7l-0.1-0.4l-0.3-0.4v-0.5L8,37l0.2-0.3l-0.5,0.1l-0.2-0.5l-0.3-0.4v-0.4l0.3-0.3v-0.1l-0.2-0.1
		l0.1-0.5v-0.8l0.4-0.2l0.3-0.2L8,33.3l0.1-0.4l-0.3-0.4L8,32.2l-0.1-0.3l-0.3-0.3l0.1-0.4V31l-0.4,0.1L6.8,31l-0.1-0.6L7,30
		l0.6,0.1l0.3,0.4L8,30.5l0.3-0.2L8,30.1L7.5,30l0.1-0.5v-0.4l0.2-0.2l-0.5-0.3l-0.1-0.4H7.2l-0.4,0.4l-0.3-0.4L6,28.1l-0.1-0.3
		l-0.3,0.3l-0.5-0.1l0.1-0.3l-0.3-0.2l-0.4-0.1l-0.1-0.4l-0.5-0.4l-0.7,0.1L3.1,26l0.1-0.1l-0.3-0.3l-0.1-0.4l-0.1-0.3l-0.1-0.2
		l-0.1,0.4l0.1,0.6l-1.2-0.1L1.4,25l0.3-0.3l0.4-0.3l0.5,0.3l-0.1-0.4l0.5-0.2l0.4-0.1L3.5,24l-0.2-0.3l-0.5-0.3L3.3,23l0.3-0.3
		L4,22.4l0.3,0.5L4.6,23l0.3-0.4l0.4-0.3l0.4,0.2l0.3,0.3l0.2,0.4l0.2-0.1l0.2-0.4H7L7.3,23l0.2,0.4l-0.3,0.3l-0.1,0.2h0.1V24
		l0.1-0.1l0.4-0.2v-0.1l-0.3-0.4l0.3-0.4l0.5-0.3l0.5,0.1l0.5-0.1l0.4,0.4v0.1l0.1-0.3h0.6l0.4-0.1l0.5,0.3l0.1,0.5l-0.1,0.3
		l0.4-0.1L11.5,23l0.5-0.1l0.5-0.2l0.3,0.5l-0.1,0.3h0.1l0.3,0.4v0.1l0.1-0.1l0.5-0.1l0.4,0.3l0.1,0.4l0.5-0.3l0.5-0.1l0.5,0.1v0.4
		l0.1,0.3l0.2,0l0.3-0.3l0.2-0.4l0.4-0.3l0.8,0.3l0.1,0.3l0.3-0.3l0.4-0.1l0.4,0.2l0.5-0.1l0.1,0.4l0.1,0.1l0.1-0.1v-0.4l0.2-0.3
		l0.1-0.1l-0.3,0.1l-0.3-0.4l-0.1-0.1l-0.2,0.3l-0.5,0.3l-0.5-0.3L17.6,23l0.6-0.2l0.3-0.2l0.4,0.3l0.3-0.3l0.3-0.2l0.3-0.5l0.5,0.1
		l0.2,0.5l0.1,0.1l0.2-0.4l0.3-0.4l0.2,0.1v-0.1l-0.1-0.4l0.5-0.1h0.3l0.4,0.3l-0.3,0.4L21.7,22l0.1,0.1l0.5,0.1l-0.1,0.4l0.1,0.2
		l0.2-0.5l0.5-0.2h0.5l0.4,0.1l0.3,0.1V22l0.6,0l0.3-0.1l0.5-0.1L26,22l0.2,0.4l0.4-0.1l-0.1,0.5L26.4,23l-0.3,0.2h-0.4l-0.2,0.4
		l-0.3,0.1l0.5,0.2l-0.1,0.3h0.5l0.3-0.1l0.3,0.1l0.6-0.1l0,0.9l-0.1,0.3l-0.1,0.3l0.3-0.2l0.5,0.3l0.3,0.3v0.4l-0.1,0.5l0.3,0.3
		l0.5,0.2l-0.3,0.4v0.5l-0.3,0.1l0.1,0.1l0.3,0.4v0.4l-0.2,0.3l-0.2,0.2h0.3l0.1,0.6l0.3,0.2l0.1-0.3l0.5,0l0.3,0.3l0.2,0.4
		l-0.3,0.5l-0.5-0.1l-0.3-0.1l0,0.3l-0.7,0.2h0.1l0.3,0.1l0.5,0.2v0.4l-0.1,0.2l0.5-0.1L29.8,33l0.1,0.5l-0.5-0.2l-0.2-0.1v0.1
		l-0.6-0.1l-0.2,0.1l0.2,0.1l0.3,0.9l-0.2,0.4l-0.5,0.3h-0.6l-0.1-0.6l-0.2-0.4l0.3-0.4l0.3-0.2l-0.1-0.1l-0.2-0.4l0.1-0.4l0.3-0.6
		h-0.4l-0.1-0.1h-0.1l-0.3,0.1l-0.4,0.1L26,31.7l-0.2-0.4l-0.1-0.4l0.1-0.5l0.3-0.1l-0.3-0.1l0.1-0.5v-0.4l0.3-0.5l-0.1-0.1
		l-0.5-0.1l-0.2-0.2l-0.2,0.2l-0.5-0.1l-0.3-0.2L24.1,28l-0.3-0.4l0.1-0.4l-0.1-0.2l-0.1-0.3l-0.3,0.1L23,27.2l0.5,0.1l0.2,0.4
		l-0.1,0.4l-0.4,0.3l-0.5-0.3l0.1-0.6l0.3-0.4l-0.4-0.3l-0.3-0.1v0.1L21.2,27L21,26.4L20.8,26l0.4-0.2l-0.3-0.3v0.1l-0.4,0.1
		l0.3,0.3l-0.3,0.4l0.1,0.4l-0.5,0.2l-0.3,0.2l-0.4-0.1L19,27l-0.4-0.3l-0.1-0.1L18.3,27l0.1-0.1l0.2,0.6L18.5,28l-0.4,0.3L17.8,28
		l-0.1,0.1l0.1,0.4l-0.5,0.2h-0.2l0.1,0.1l0.4,0.3l-0.2,0.5L17,29.9l-0.5-0.2l-0.2-0.4v-0.5l0.4-0.2l-0.1-0.1l-0.1-0.3v-0.1
		l-0.3,0.2l-0.3,0.3l-0.1,0.1l0.1,0.3l0.1,0.4l-0.4,0.4l-0.4,0.3L14.9,30l-0.3,0.4h-0.2l0.1,0.1l0.1,0.3l0-0.1l0.5-0.1l0.5-0.3
		l0.5,0.3l0.3,0.4l-0.1,0.5l-0.5,0.2l-0.2,0.5H15l-0.3-0.4l-0.3-0.3l-0.2,0.1L14.2,32l0.2,0.4l-0.2,0.4l-0.3,0.3l-0.5,0.3L13,33H13
		l-0.2,0.1l-0.1,0.5l-0.3-0.1l0.3,0.3l0.3,0.3l0.2,0.4l-0.2,0.4l-0.2,0.2l0.3,0.1l-0.3,0.6l0.3,0.5L12,36.8l-0.3-0.3l-0.3-0.3
		L11.1,36l-0.2,0.4l-0.4,0.3l0.1,0.1l0.2,0.3v0.4l-0.3,0.3l-0.3,0.3l-0.1,0.1h0.1l0.4-0.1l0.4,0.1l0.1-0.1l0.1-0.1L11,37.5l0.3-0.5
		l0.5,0.1l0.4-0.1l0.5,0.1l-0.1,0.5v0.5h-0.4l0.2,0.3l-0.1,0.4l-0.1,0.4l-0.4,0.3l-0.2-0.2l-0.2,0.4l-0.1,0.1l0.1,0.1l0.5-0.3
		l0.5,0.1L12.4,40.3L12.4,40.3z M2.1,49.3l-0.5-0.1l-0.1-0.4l-0.3-0.4l0.4-0.4l0.5-0.1l0.5,0.1l0.2,0.4v0.5l-0.2,0.4L2.1,49.3
		L2.1,49.3z M1.4,45.4L1.8,45l0.3-0.2l0.2,0.3L2,45.5L1.4,45.4L1.4,45.4z M2.5,23.8l-0.6-0.1l-0.2-0.6L2,22.7l0.5-0.1l0.4,0.1
		L3,23.1l-0.2,0.3L2.5,23.8L2.5,23.8z M2.3,21.4L2.3,21.4l0.1,0.1L2.3,21.4L2.3,21.4z M2.6,26.7l-0.2-0.1v-0.1L2.6,26.7L2.6,26.7z
		 M2.4,42.7L2.4,42.7l0,0.1L2.4,42.7L2.4,42.7z M3.4,21.4l-0.3-0.1l0.2-0.3L3.7,21l-0.1,0.3L3.4,21.4L3.4,21.4z M3.8,43.4l-0.1,0.1
		v-0.1L3.8,43.4L3.8,43.4z M4,28L4.2,28l-0.1,0.2L4,28.3L4,28L4,28L4,28z M4,25.6l0.2,0.1v0.5l0.2-0.1l0.3-0.3l0.1-0.1l-0.1-0.1
		l-0.3-0.2l-0.1-0.3l-0.1,0.1L4,25.6L4,25.6z M4.2,24.1l0.2,0.4l0.1-0.1L4.7,24l0.3-0.1l-0.3-0.3L4.2,24.1L4.2,24.1L4.2,24.1z
		 M4.5,47.7h0.3l-0.1-0.2H4.6l-0.2,0.3H4.2L4.4,48L4.5,47.7L4.5,47.7z M5.1,21.6l0.4-0.4l0.5,0.3l-0.1,0.3l-0.3,0.1L5.1,21.6z
		 M5.5,43.7l-0.4,0.2l0.3-0.3v-0.1l0.4-0.1L5.5,43.7L5.5,43.7z M5.5,25.7l-0.1,0.1L5.5,25.7l0.3,0.2L6,26.2L6,26.6l-0.2,0.3
		l-0.2,0.3h0.1l0.3,0.3l0.1-0.1l0.1-0.4l0.2-0.1l-0.1-0.6L6.2,26l0.1-0.2l-0.3-0.2L6,25.8L5.5,25.7L5.5,25.7z M5.5,29.8l0.1-0.1
		L5.6,30l-0.3,0.1l0.1-0.2L5.5,29.8L5.5,29.8z M6.4,24.1l0.2-0.1v-0.1l-0.5-0.1l-0.3-0.4v0.1l-0.3,0.2l-0.2,0.1h0.2L6,24.1v0.1
		L6.4,24.1L6.4,24.1z M5.9,48.2L5.9,48.2L6.1,48H5.9L5.9,48.2L5.9,48.2z M6.5,46.3l0-0.3L6.4,46l-0.1-0.1V46L6.1,46L6.5,46.3
		l-0.1,0.1L6.5,46.3L6.5,46.3z M7.1,34.5l-0.4,0.4l-0.4-0.4l0.1-0.4L6.9,34L7.1,34.5L7.1,34.5z M6.4,29.1l0.3-0.4l0.7,0.6l-0.1,0.4
		l-0.5,0.2l-0.1-0.4L6.4,29.1L6.4,29.1z M6.9,36.2L6.6,36l0.3-0.4l0.5,0.2l-0.1,0.4C7.2,36.2,6.9,36.2,6.9,36.2z M6.6,40.1L7,40.1
		l0.3,0.2l-0.1,0.4l-0.3-0.3L6.6,40.1L6.6,40.1z M7.2,37.2l0.1,0.3v0.3l-0.4-0.1l-0.1-0.4L7.2,37.2L7.2,37.2z M6.8,41.8l0.3,0.1
		l0.4,0.2L7,42.2l-0.3-0.1L6.8,41.8L6.8,41.8z M7.2,32.2l0.5-0.1l-0.5,0.3H7.2l-0.3-0.3H7.2z M7.2,26.9l0.3,0.3l0.2-0.1l-0.1-0.3
		L7.5,27l-0.5-0.2l-0.1,0L7.2,26.9L7.2,26.9z M7.2,21.9l0.2-0.1l0.3-0.1L7.5,22l-0.3,0.1L7.2,21.9L7.2,21.9z M7.4,39.2l-0.1-0.1
		v-0.3l0.4-0.2l0.2,0.5L7.4,39.2L7.4,39.2z M7.9,21.3l0.2-0.4l0.3,0.3l0.1,0.3l-0.3-0.1L7.9,21.3L7.9,21.3z M8.3,36.7l0.4,0.2
		l0.2-0.3l0.3-0.4h0.1L9.2,36l-0.5,0.5L8.3,36.7L8.3,36.7z M9.6,23.3l-0.1,0.4l-0.3,0.3l-0.2,0.1l0.1,0.3v0.4l-0.3,0.3l-0.1,0.4
		l-0.1,0.1l0.6,0.3l0.1,0.2v-0.3l0.1-0.4l-0.1-0.1l-0.2-0.4l-0.1-0.4l0.3-0.4H10l0.3-0.3l-0.1,0l-0.6-0.6L9.6,23.3L9.6,23.3z
		 M9.2,46.6v0.1l0.1-0.3l0.1-0.1l-0.2-0.4L9.1,46l-0.2,0.5L9.2,46.6L9.2,46.6z M9.4,30.5L9,30.4L9,30.5l0.1,0.1l0.2,0.1L9.4,30.5
		L9.4,30.5L9.4,30.5z M9.9,26.5l-0.3-0.2l0.1,0.3L9.6,27l-0.3,0.3l-0.1,0.4l0,0.3l0.1-0.1l0.1-0.4l0.5-0.1l0.4-0.3l0.2,0.1l-0.1-0.2
		l-0.1-0.2L9.9,26.5L9.9,26.5z M9.6,44.7l-0.3,0.1H9.2L9.4,45L9.6,44.7L9.6,44.7z M9.3,41.3L9.3,41.3l0.2-0.2L9.3,41.3L9.3,41.3
		L9.3,41.3z M9.4,42.8l0.1,0.1L9.4,42.8L9.4,42.8L9.4,42.8z M9.8,31.7l-0.1-0.2l-0.3-0.1v0.2L9.8,31.7L9.8,31.7z M9.6,41.1L9.6,41.1
		l-0.1-0.2v0.2L9.6,41.1L9.6,41.1z M9.8,21.3L9.9,21l0.4-0.2l-0.1,0.4v0.1L9.8,21.3z M10.7,44.1l-0.4,0.3l-0.5-0.1l0.1,0.2l0.1-0.1
		l0.5-0.1l0.3,0.3v-0.1l0.2-0.4H11V44L10.7,44.1L10.7,44.1z M10.5,23.8l0.5,0.4l0.1,0.1v-0.1l-0.2-0.5l0.1-0.1L10.5,23.8L10.5,23.8
		L10.5,23.8z M10.9,27.7L10.9,27.7l0.1-0.1l-0.2-0.1L10.9,27.7L10.9,27.7z M10.7,29.8l0.3,0.4l0,0.1l0.3-0.1h-0.3L10.7,29.8v-0.1
		V29.8L10.7,29.8z M10.9,33.8l0.3-0.3h-0.1l-0.2-0.2l0,0.3l-0.2,0.1l0.1,0.3l0.1,0.1L10.9,33.8L10.9,33.8z M11,32l-0.1-0.1l-0.1,0.1
		l0.1,0.2L11,32L11,32z M11.3,35.6L11.3,35.6l-0.1,0.1L11.3,35.6L11.3,35.6z M11.3,42.9l0,0.1l0.1,0.1L11.3,42.9L11.3,42.9z
		 M12,33.6l-0.3-0.1l-0.4,0.1l0.5,0.1L12,33.6L12,33.6z M12.7,48.6L12.4,49l-0.5,0.2l-0.3-0.4l-0.2-0.3v-0.9l0.5,0.1l0.3,0.1
		l0.5,0.2L12.7,48.6L12.7,48.6z M11.5,43.2l0.1,0.1h0.2l0.2-0.1L11.5,43.2L11.5,43.2z M12.6,29.4l-0.1,0.5H12l-0.4,0.3h0.2l0.5-0.1
		l0.5,0.2l0.1,0.4l0.2-0.2l0.1-0.2l-0.4-0.3l-0.1-0.5L12.6,29.4L12.6,29.4z M12.8,25.3l-0.2-0.2l-0.1,0.4h-0.7v0.3l0.1,0.1l0.4,0.1
		l0.3,0.3l0.1,0.4L12.5,27l-0.1,0.1l0.3,0.4l0.1-0.3l-0.1-0.5h0.1l0.1-0.5v-0.4l0.4-0.2l0.1-0.1L12.8,25.3L12.8,25.3z M13,28.7
		l0.3-0.3h0.2l-0.2-0.2h-0.2L13,28.6l-0.2,0.1v0.2L13,28.7L13,28.7z M13.3,37.2l-0.3-0.1L12.9,37l0.3,0.1L13.1,37L13.3,37.2
		L13.3,37.2z M14.5,48.1l-0.1,0.4l-0.3,0.4l-0.4,0.2L13.2,49L13,48.6l0.1-0.4l0.1-0.4l0.5,0.1H14L14.5,48.1L14.5,48.1z M13.5,36
		l-0.3-0.3l0.4-0.2l0.5,0.3l-0.4,0.3L13.5,36L13.5,36z M14.1,33.5l0.1,0.4l-0.2,0.4l-0.4,0.4l-0.4-0.4v-0.4l-0.1-0.4l0.5-0.1
		C13.7,33.4,14.1,33.5,14.1,33.5z M13.5,23.1l-0.1-0.4l0.2,0.1l-0.1,0.1L13.5,23.1L13.5,23.1z M13.7,42.6l-0.3-0.1l0.1-0.4l0.3,0.2
		l0.1,0.3L13.7,42.6L13.7,42.6z M13.7,40.6v0.2l-0.2-0.2l0.2-0.3V40.6L13.7,40.6L13.7,40.6z M13.7,25.1h0.3L13.9,25L13.7,25.1
		L13.7,25.1z M13.7,43.5l0.1-0.2L13.7,43.5L13.7,43.5L13.7,43.5L13.7,43.5L13.7,43.5z M13.7,45.9L14,46l0.1,0.4l0.1,0.2l0.2-0.3
		l0.1-0.1L14.3,46l-0.1-0.4l-0.1-0.1L14,45.6C14,45.6,13.7,45.9,13.7,45.9z M14.6,27.1l0.2-0.1l0.1-0.1l-0.1-0.1l-0.1-0.1v0.1
		L14.6,27.1L14.6,27.1L14.6,27.1z M15.5,32.5l0.2,0.4L15.3,33l-0.1-0.2v-0.2C15.2,32.7,15.5,32.5,15.5,32.5z M16.7,31.5l-0.3,0
		l0.2-0.3l0.5,0.4L16.7,31.5L16.7,31.5z M16.4,48.9l-0.1-0.3l0.1-0.4l0.3,0.4l0.1,0.4L16.4,48.9L16.4,48.9z M16.9,27l-0.4,0.1
		l-0.1,0l0.1,0.2L16.9,27L16.9,27z M16.9,22.4l0.2,0.4l0.1,0.4l-0.5-0.1l0.1-0.4L16.9,22.4L16.9,22.4z M17.5,44.7l0,0.4l-0.3,0.2
		l-0.4,0.1L16.7,45v-0.4h0.5L17.5,44.7L17.5,44.7z M17.6,27.2L17.4,27L16.9,27l0.5,0.4l0.1,0.1l-0.1-0.2
		C17.3,27.2,17.6,27.2,17.6,27.2z M18.3,33.8L18.2,34L18,34.1v-0.4L18.3,33.8L18.3,33.8z M18,48.5l0.1-0.3L18,48.3l0.1-0.3l0.1,0.3
		L18,48.5L18,48.5z M18.5,29.3l-0.2,0.1v-0.3L18.5,29.3L18.5,29.3z M18.4,21.9l-0.1-0.3l0.3,0.2L18.4,21.9l0.1-0.1L18.4,21.9
		L18.4,21.9z M18.4,46.6l0.3-0.3l0.3,0.3L18.8,47l-0.3-0.1L18.4,46.6L18.4,46.6z M18.6,45.8l-0.2-0.2l0.3,0.1L18.6,45.8L18.6,45.8z
		 M19.3,25.4l-0.2-0.1l-0.1,0.1v0.3L19.3,25.4L19.3,25.4z M22.8,48.2l-0.2,0.5l-0.1,0.4l-0.4,0.1l-0.5,0.3L21.4,49l-0.1-0.4l0.3-0.3
		l0.2-0.4h-0.5l-0.1-0.5l-0.4,0.4l0.2,0.2l-0.4,0.4h-0.3l-0.4-0.1l-0.3-0.5h0.1l-0.1-0.4L19.3,47l0.3-0.4l0.5-0.3l0.5,0.2l0.1,0.5
		V47l0.1-0.3l-0.3-0.6l0.3-0.4l0.5-0.1l0.5,0.3l0.3,0.2l0.3,0.3l0.1,0.1l0.1-0.1l0.3-0.3h-0.2l-0.3-0.4l-0.4-0.3l0.1-0.4l0.3-0.3
		l0.4-0.3l0.3,0.4l0.5,0.3l-0.2,0.5L23.4,46L23.2,46l0.3-0.1l0.4,0.4l0.3,0.2v-0.3l0.3-0.2h-0.4L24,45.4l0.3-0.4l0.3-0.3l0.3-0.1
		h0.4l0.4,0.2l0.1-0.1l-0.1-0.1l-0.4-0.4v-0.6l0.6-0.1l0.3-0.5l0.5,0.3l0.2,0.4l0.2,0.6L27,44.4H27l0.3,0.1l0.1,0.1l0.1-0.1
		l-0.1-0.1l-0.3-0.4v-0.5l0.1-0.4v-0.5l0.2-0.1l-0.2-0.2L27,42.5l-0.3,0.2l-0.4,0.1l-0.4-0.1l-0.3-0.4l0.2-0.4v-0.6L25.6,41
		l-0.1-0.4l0.2-0.4l0.3-0.3l0.5,0.1l0.4-0.1h-0.8l-0.4-0.3V39l-0.1-0.5l0.5-0.2l0.3-0.2l0.5,0.1l0.3,0.1l0.3-0.3h0.2l0-0.1l-0.5-0.1
		l0.1-0.2L27,37.8l-0.5,0.1l-0.3-0.4l-0.1-0.3v-0.4l0.3-0.2l0.5-0.1l0.3,0.3l0.3,0.1l-0.1-0.3l0.6-0.1l0.5,0.2l0.4,0.3v0.5l-0.3,0.4
		l-0.1,0.1l0.1,0.4L28.4,39l-0.2,0.3l-0.5,0.3l-0.2-0.5l-0.2-0.1l0.3,0.4l-0.5,0.3h-0.2l0.3,0.2l0.3,0.3l0.1,0.3l0.4-0.4l0.5,0.1
		l0.4,0.1l0.1,0.3L29,41l-0.2,0.3l-0.3,0.1v0.1l0.1,0.4l-0.4,0.4l0.4,0.3l0.3,0.2l0.2,0.4v0.4L29,43.9L29,44.5h-0.5l-0.5,0.2
		l0.3,0.1l0.5-0.1l0.5,0.1l0.3,0.4l-0.1,0.4v0.1l0.2,0.1l0.1-0.1l-0.1-0.5l0.5-0.1l0.4-0.1l0.6,0.1v0.5L30.5,46l-0.3,0.1l-0.2,0.1
		l0.3,0.1l0.1,0.4l0,0.3l0.1-0.4l0.4-0.4l0.5,0.3l0.6,0.1L32,47.3l-0.5,0.1l-0.5,0.3l-0.5-0.3l-0.1,0.1l0.5,0.2l-0.1,0.4v0.6
		l-0.6,0.2l-0.5-0.1l-0.1-0.6l-0.2-0.4v-0.1l-0.1-0.1h-0.1l-0.1,0.1l-0.4,0.2h-0.8l0.2,0.1l0.5,0.1l-0.1,0.5l-0.2,0.4l-0.2,0.4
		l-0.6,0.1L27,49.3l-0.3,0.1h-0.5l-0.5-0.9l-0.3,0.3l-0.5-0.1l-0.5,0.1V49l-0.3,0.3l-0.5,0.2l-0.5-0.1l-0.1-0.4l-0.2-0.4l0.3-0.4
		h0.1l-0.3-0.3l-0.4-0.2l-0.1-0.2l-0.1,0.5h0.1L22.8,48.2L22.8,48.2z M20.2,27.6V28l-0.5-0.1l-0.1-0.3l0.3-0.3L20.2,27.6L20.2,27.6z
		 M20,45.7l-0.3-0.1l0.3-0.3l0.1,0.1v0.1L20,45.7L20,45.7z M20.4,21.3l0.1,0.4l-0.5,0.1l-0.4-0.1l0.1-0.4l0.1-0.3h0.4L20.4,21.3
		L20.4,21.3z M21.1,23.7L21.1,23.7L21.1,23.7l0.1,0l-0.1-0.1l-0.3-0.1l-0.1,0.3L21.1,23.7L21.1,23.7z M22.1,45.3l-0.5,0.3l-0.3-0.3
		L20.8,45l0.3-0.4l0.4-0.1l0.3,0.1l0.4,0.3L22.1,45.3L22.1,45.3z M21.1,28l0.1-0.3l0.2-0.1l0.1,0.1h-0.1L21.1,28L21.1,28z
		 M22.1,23.6l0.3,0.4v0.1l0.3-0.1h0.1l-0.3-0.2l-0.2-0.4l-0.1,0.1l-0.3,0.2l-0.1,0.1L22.1,23.6L22.1,23.6z M22.3,25.8v-0.2l-0.4-0.1
		l-0.1,0.1l0.1,0.1L22.3,25.8L22.3,25.8L22.3,25.8z M23.6,21.5l-0.3,0.1L23,21.3l0.4-0.4l0.4,0.3L23.6,21.5L23.6,21.5z M23.6,29.6
		l-0.2,0.3v-0.3L23.6,29.6L23.6,29.6L23.6,29.6z M25,25.2l-0.5,0.4l-0.4-0.4L23.9,25l-0.1,0.1v0.3l0.3,0.1l-0.1,0.2h0.4l0.3-0.1
		l0.3,0.1l0.1-0.2l0.4-0.3l0.1-0.1h-0.1l-0.1,0.1L25,25.2L25,25.2z M24,48.3l0.2,0.1v-0.1l0.3-0.4l0.2-0.3l0.4-0.3l-0.3-0.1h-0.1
		l0,0.1l-0.1,0.4l-0.3,0.4L24,48.3L24,48.3L24,48.3z M25,31.1l-0.3,0.1h-0.5l0.1-0.5l0.3-0.3l0.3,0.2l0.4,0.1L25,31.1L25,31.1z
		 M24.4,21.5l0.1-0.4L24.4,21.5l0.3,0.3l-0.5,0L24.4,21.5L24.4,21.5z M25.2,28.9l0.1,0.4v0.4l-0.4,0.1L24.3,30v-0.5l0.1-0.4l0.3-0.4
		L25.2,28.9L25.2,28.9z M24.4,43.9l0.1-0.3h0.1l0.1,0.1L24.4,43.9z M24.9,41.1l-0.3-0.3l0.3-0.1l0.3,0l0.1,0.4
		C25.3,41.1,24.9,41.1,24.9,41.1z M24.5,42.3l0.1-0.1l0.1,0.1H24.5z M24.8,43.7h-0.3v-0.1L24.8,43.7z M24.6,38.7l0.4-0.3l0.1,0.1
		l0.1,0.1l-0.1,0.3C25.1,38.9,24.6,38.7,24.6,38.7z M25.3,41.7L25.2,42l-0.3-0.1l-0.1-0.5l0.6-0.2L25.3,41.7L25.3,41.7z M25.1,34.1
		h0.3l0.1,0.2l0.1-0.3l0.1-0.3l-0.2-0.4l-0.1-0.1L25.1,33L25,32.7l0.2-0.1v-0.2l0.4-0.4l0.5,0.3l0.3,0.1l0.6,0.1l-0.2,0.4L26.8,33
		l-0.1,0.4l-0.1,0.1l0.2-0.1l0.2,0.4l0.3,0.3l0.1,0.4v0.4l-0.3,0.4l-0.3,0.1l0.3,0.3l-0.4,0.4l-0.4,0.3l-0.5-0.2L25.6,36l-0.2-0.2
		L25.2,36h-0.4l0.1-0.4h0.3v-0.3l0.3-0.3l-0.1-0.2l-0.1-0.4l-0.3-0.1l-0.1-0.1C24.9,34.2,25.1,34.1,25.1,34.1z M25.3,37.4l0.1,0.2
		l-0.1,0.1h-0.2l-0.2-0.3L25.3,37.4L25.3,37.4z M25.1,47.3l0.3,0.3l0.3,0.3l0.3,0.4l0.3-0.2l0.4-0.3l0.5,0.1l0.2,0.3l0.3-0.4
		l0.3,0.1l-0.3-0.3l-0.2-0.1v0.1l-0.5-0.1l-0.5,0.2l-0.3-0.5L26,47.2L26,47.5l-0.5-0.1L25.1,47.3L25.1,47.3z M25.6,24.3L25.6,24.3
		l0.1,0.4L25.6,24.3L25.6,24.3z M25.8,27.4l0.1-0.3L25.8,27.4L25.8,27.4L25.8,27.4z M25.9,26.9H26H25.9L25.9,26.9L25.9,26.9z
		 M26.7,21.5L26.7,21.5l-0.1,0.1L26.7,21.5L26.7,21.5L26.7,21.5z M26.6,26.7L26.6,26.7L26.6,26.7L26.6,26.7L26.6,26.7z M27.2,26.9
		l0.3,0.3l0.1,0.3l0.1-0.1l0.3-0.3l0.2-0.2l-0.3,0.1l-0.5-0.1l-0.5-0.1h-0.1L27.2,26.9L27.2,26.9z M27.6,27.9l-0.1,0.2l-0.3,0.2
		L27,28.7l0.1,0.1l0.1-0.1l0.2-0.4l0.4,0l0.3-0.1L28,28L27.6,27.9L27.6,27.9z M29,35.7l-0.4,0.4l-0.3,0.4l-0.5-0.3l-0.5-0.1
		l-0.1-0.4l0.1-0.4l0.5-0.3l0.5-0.1l0.3,0.4L29,35.7L29,35.7z M27.7,23.5l-0.1,0l0.1-0.3L27.7,23.5L27.7,23.5z M28.3,24.8l-0.4-0.1
		l-0.1-0.4l0.3-0.3l0.5,0l0.1,0.4l-0.1,0.3L28.3,24.8L28.3,24.8z M29.2,42.1L29,41.5l0.5-0.1l0.3,0.3l-0.2,0.4L29.2,42.1L29.2,42.1z
		 M30,38.5l-0.4,0.3l-0.5,0.1l0.1-0.5l0.4-0.1L30,38.5L30,38.5z M29.7,34.1l-0.4,0.1l-0.1-0.3l0.1-0.5l0.3,0.4L29.7,34.1L29.7,34.1z
		 M29.6,44l-0.3-0.3l0.4,0.1l0.5,0.1L29.7,44H29.6z M29.6,27.5h0.5L30,28l-0.4,0.3l-0.2-0.4L29.6,27.5L29.6,27.5z M29.9,29.3
		l0.3,0.5l-0.4,0.1l-0.3-0.1l0.1-0.3L29.9,29.3L29.9,29.3z M29.8,26.2l0.1,0.2l-0.2,0.3l-0.2-0.3l0.1-0.3
		C29.5,26.2,29.8,26.2,29.8,26.2z M29.6,35.4l0.5,0.1v0.3L29.9,36l-0.2-0.2L29.6,35.4z M29.6,38l-0.1-0.6h0.5l0.2,0.3l-0.2,0.3
		L29.6,38L29.6,38z M30.1,40.9l-0.5-0.2l0.2-0.3L30,40l0.3,0.4L30.1,40.9L30.1,40.9z M29.9,24.6h-0.1l0.1-0.1V24.6z M31.1,37.3
		l-0.3-0.1l0.1-0.2l0.3-0.1l0.1,0.1l0.1,0.3L31.1,37.3L31.1,37.3z M31.1,49.1L31,48.6v-0.4l0.3-0.4l0.9,0.4l-0.1,0.4l-0.3,0.3
		l-0.3,0.3C31.5,49.2,31.1,49.1,31.1,49.1z M31.8,45.4l0.1,0.2l-0.1,0.3l-0.2-0.3l-0.2-0.3L31.8,45.4L31.8,45.4z M37.3,48l0.3-0.1
		l0.4,0.3l-0.1,0.3L37.8,49l-0.7-0.1L37,48.3L37.3,48z M39.8,25.3l-0.5,0.1l-0.5-0.1l-0.2-0.4l-0.3-0.4l0.2-0.4l0.3-0.3l0.4-0.2
		l0.1,0l-0.2-0.2l-0.4-0.1l-0.3-0.4l0.2-0.4l0.4-0.3l0.4-0.1l0.5,0.2l0.1,0.5l-0.4,0.3l-0.1,0.3l0.1,0l0.3,0.2l0.1,0.1L40,23.4
		l0.2-0.4l0.1-0.4l0.3-0.2l0.3-0.4l0.3,0.1l0.1-0.3l0.1-0.5l0.5,0.2l0.3,0.4L42,22l0.3-0.1l0.5-0.3l0.1,0.2l0.3,0.1l-0.2,0.1v-0.1
		h-0.1l0.1,0.1l0.1,0.2l0.3,0.2l0.3,0.3v0.2l0.2,0.1l0-0.3l0.3-0.4h0.5l0.4-0.4l0.4,0.3l0.2,0.1l0-0.1l0.5-0.3l0.5,0.2l0.3,0.3
		l0.3,0.2h0.1l0.3-0.2h0.5l0.3,0.3l0.4,0.2V23l0.3,0.1V23l0.2-0.4l0.5,0.1l0.4,0.3l-0.3,0.3l0.3,0.1l0.1,0.4l0.2,0.4l0.2,0.4
		L49.9,25l-0.3,0.3l-0.3,0.1l0.1,0.1l0.5-0.1l0.2,0.2l0.1-0.2l0.6-0.1l0.2,0.5l0.1,0.4l-0.5,0.3l-0.3-0.4l-0.1-0.1v0.2l-0.1,0.4
		l0,0.1l0.2,0.2l0.3,0.4v0.1l0.5-0.1l0.3,0.5l-0.3,0.4h0.7v-0.1l-0.2-0.5l0.5-0.3l0.3,0.2v-0.1L53,27l0.4-0.3h0.2l0-0.6l0.5-0.1
		l0.3-0.2l0.3,0.3l0.1,0.1v-0.4l-0.3-0.5l0.5-0.3l0.3-0.3l-0.1-0.1l-0.3-0.3l0.3-0.4l0.3-0.2l0.3-0.3l0.5,0.1l0.3,0.3v0.4l0.3-0.3
		l0.4-0.2l0.1,0.1l0.1-0.2l-0.1-0.1l0.7-0.3l0.2-0.3h0.1v-0.1l0.3-0.3l0.3-0.3l0.3,0.2l0.2,0.5L59,23.2l0.1,0.1h0.5l0.3,0.3v0.1H60
		l0.1-0.4l0.3-0.4l0.3-0.3l0.5,0.1h0.5l0.2,0.3l0.1-0.1l0.3-0.2l0.4-0.1h0.5l0.3,0.1l0.3-0.4l0.5,0.2l0.5-0.3l0.3,0.6l0.4,0.2V23
		l0.1-0.1l0.3,0.3l-0.2,0.4h-0.1l0.1,0.1v0.1l0.1,0l0.5-0.3l0.2,0.5l0.3,0.3l0.1,0.1l0.1-0.3l0.5-0.1l0.4-0.3l0.5,0.1l0,0.8L68,25.3
		l-0.5,0.1L67,25.3l-0.2,0.2l0.2,0.3H67l0.5-0.3l0.4,0.3l0.3,0.3l0.5,0.3l-0.3,0.4l-0.3,0.8l0.1,0.3l-0.1,0.4l-0.3,0.4h-0.1l0.3,0.2
		L68,29.3l-0.3,0.3l-0.4,0.2l-0.3-0.1l-0.2,0.1l0.1,0.6l-0.5,0.2l-0.1,0l0.3,0.3l-0.2,0.5l-0.1,0.3l-0.1,0.5l-0.5-0.1L65.4,32
		l-0.6-0.1l-0.1-0.5l0.1-0.4h-0.2L64.4,31l0.1,0.1l-0.4,0.4l-0.5,0.3l-0.5-0.2l-0.3-0.4l-0.1-0.5l0.5-0.1v-0.4l-0.4-0.3l-0.3,0.2
		l-0.3,0.1l-0.2-0.3l-0.3-0.4l0.5-0.1l0.5,0.1v0.1l0.1-0.2l-0.1-0.1L62.4,29l-0.1-0.4l-0.1-0.1l-0.3-0.1l0.1-0.2L62,28.1l0.3-0.4
		l0.2-0.2l-0.1-0.2l-0.1-0.1h-0.9l-0.3-0.4l-0.1-0.3v0.1l-0.4,0.2l-0.4-0.1l-0.2-0.2l-0.5,0.2l-0.5-0.2H59L59,26.6L58.7,27l-0.4,0.2
		l-0.4,0.1l-0.5,0.1l-0.4-0.2L57,27l-0.1,0.4h-0.1l0.2,0.2v0.1l0.3-0.1l0.5-0.1V28l0.2,0.5l-0.4,0.4L57,28.8l-0.1-0.3l-0.3,0.4
		l-0.4,0.3h-0.1l0.3,0.4l-0.1,0.3l-0.3,0.3l-0.5,0.1l-0.1-0.3L55,30.4l-0.5-0.1l-0.4-0.1l-0.5,0.1l-0.1,0.1l-0.1,0.1l0.2,0.3
		l-0.1,0.2l0.5-0.2l0.3-0.4l0.4,0.3l0.3,0.4v0.6l-0.5,0.1L54,31.6l-0.4-0.2l-0.1-0.4l-0.1,0.1l-0.1,0.4l-0.1,0.2l0,0.4l0.3,0.4
		l-0.2,0.4L52.9,33l-0.3,0.1h-0.2l0,0.1l-0.3,0.3l-0.2,0.4l0.3,0.3l0.1,0.4L51.9,35l-0.1,0.4l-0.4,0.2l0.2,0.3l-0.1,0.4l-0.1,0.3
		l-0.1,0.1h0.1l0.1,0.4v0.4l-0.2,0.3L51.2,38l0.1-0.1l0.2,0.5l0.1,0.4l-0.1,0.4l0,0.3l0.2,0.2l0.3,0.2l0.2,0.4v0.1l0.3,0l0.2,0.2
		l0.2,0.3l-0.4,0.1l-0.3,0l-0.2-0.1l-0.2,0.1l0.2,0.3l0.3,0.3h0.1l0.3,0.2l-0.1,0.3l-0.2,0.2l0,0.3l-0.6,0.1l-0.3,0.4l0.2,0.1
		l0.2,0.2l0.2-0.1l0.3,0.1l0.6,0.1v0.5L53.1,44l0.1,0.1l0.1-0.1l0.3-0.4l-0.1-0.1l0.1-0.4h0.5l0.5,0.1v0.4H55l0.2,0.3l0.5-0.1h0.5
		l-0.3-0.4l-0.2-0.2l0.5-0.4l0.2,0.3l0.2,0.4l-0.4,0.3l0.5-0.1l0.1,0.5l0.1,0.1l0.3-0.3l0.4-0.1L58,44l0.3,0.4l0.3,0.3l-0.1,0.4
		l0.1-0.1l0.3-0.3l0.3,0.3l0.6,0.1l-0.2,0.5l-0.3,0.4l0.2,0.2l0.4,0.2l0.3,0.4l-0.5,0.4l-0.3,0.3l-0.1,0.3L59.3,48l-0.1,0.3l0.1,0.5
		l-0.3,0l-0.3,0.4l-0.5,0.2L58,49.5h-0.4l0.2,0.1l0.5,0.1l-0.4,0.3l-0.3,0.3l-0.4-0.2v-0.8L57,49.3v0.4l-0.4,0.2V50l-0.5,0.3
		L56,49.9L55.6,50h-0.5l-0.4-0.4l-0.1,0.1h-0.5l-0.3-0.3l-0.5-0.2l-0.1-0.1L53,49l-0.4,0.3l-0.5-0.1l-0.3-0.2l-0.5,0.5l-0.1,0.1
		l0.6,0.2l-0.3,0.4l-0.4,0.1l-0.4,0.3l-0.4-0.3l0.1-0.4v-0.3H50l-0.1-0.1l-0.1,0.3h-0.1l0.1,0.3l-0.3,0.4l-0.3,0.2l-0.4-0.1L48.6,50
		l-0.1,0.4l-0.4,0.1l-0.5,0.1l-0.2-0.4l0.5-0.1l0.3-0.2l0.2,0.1l-0.1-0.1l0.3-0.1l-0.1-0.1l-0.5-0.1h-0.4l-0.5,0.1l-0.3-0.3v0.1
		l-0.5-0.1l-0.2,0.1v0.1L46,49.6l0.3,0.1L46,50.2l-0.4,0.1l-0.5,0.1l0.1-0.5h-0.1l-0.4,0.2l-0.1,0v0.4l-0.5-0.1l-0.5,0.1l-0.1-0.1
		l-0.3,0.3L43,51l-0.9-0.4l-0.2-0.4v-0.2h-0.1l-0.1,0.3l-0.2,0.4l-0.5-0.1l-0.6,0.1l-0.1-0.6l0.3-0.4l-0.2-0.1L40,49.6l-0.3-0.3
		l-0.1,0.1h-0.3l0.4,0.1L39.7,50l-0.9-0.4l0.3-0.3l-0.2-0.5l-0.4-0.3l-0.1-0.4v-0.3l-0.2-0.4l-0.4,0.2l-0.5-0.3v-0.5l-0.3-0.4
		l0.3-0.4l0.3,0.1l-0.1-0.1l-0.1-0.5l0.5-0.4l0.4,0.1l0.2-0.3l0.4-0.3l0.4,0.1h0.4l0.3,0.3l0.3,0.3l-0.1,0.1l0.2,0.1l0.1,0.1
		l0.3-0.3l0.2-0.3l0.3-0.3l0.1-0.1l0.1-0.4l0.5-0.2h0.1L42,43.5l0.4-0.3l0.5,0.1v0.4h0.1l0.4,0.3l0.3,0.4l-0.1,0.4l0.2-0.3l0.4-0.3
		l0.4-0.1h0.4l0.2,0.1L45,44.1l-0.3-0.3l0.1-0.4l0.1-0.3l0.1-0.4l0.3-0.4l0.5,0.2l0.4-0.1h-0.3L45.4,42l0.4-0.3l0.3-0.3l0.4,0.1
		l0.3,0.4l-0.5,0.3l-0.1,0.1l0.2,0.3l0.3-0.3l0.1-0.1v-0.3l-0.2-0.4l0.2-0.2L46.8,41v-0.5l0.3-0.3H47l-0.1-0.4l-0.4-0.3l-0.1-0.5
		l0.5-0.3l0.3-0.4l0.5-0.2l0.3,0.3l0-0.2l-0.1-0.1l-0.4-0.3l-0.4-0.1l-0.1-0.4L46.9,37l0.1-0.3v-0.1l-0.1-0.5l-0.5-0.3l0.3-0.4
		l0.1-0.4l0.3-0.4l0.3-0.1L47,34.3l-0.1-0.4l-0.1-0.4l0.1-0.1l-0.2-0.2l0-0.4l-0.1-0.4l0.1-0.5l0.4-0.2h0.1v-0.3l-0.3-0.3l-0.1-0.4
		l0.3-0.3l0.1-0.1L47,30.1l-0.2-0.4l-0.1-0.4l-0.1-0.5l0.3-0.2l-0.2-0.3v-0.5l-0.2-0.3v0.1l-0.3-0.1L46,27.7L45.6,28l-0.2-0.4
		l0.1-0.2L45.2,27L45,26.8L45,27l-0.4,0.3l-0.4,0.1l-0.5-0.1l-0.1-0.1l-0.2,0.3L43,27.6l-0.5,0.1l-0.4-0.3l-0.3-0.3l-0.1-0.3
		l-0.1,0.2l-0.3,0.2l-0.5,0.1l-0.5-0.1l-0.2-0.4l-0.3-0.4l-0.3,0.2l-0.5,0.3v-0.6l0.2-0.3l0.2-0.2l0.3,0l0.1-0.4L39.8,25.3
		L39.8,25.3L39.8,25.3z M37.9,36.3L37.9,36.3L37.9,36.3L37.9,36.3L37.9,36.3z M39.7,21.2l-0.1-0.1v0.1l-0.1-0.1l0.1-0.1L39.7,21.2
		L39.7,21.2z M39.6,43.7l-0.1-0.3l0.3-0.3l0.3,0.4l-0.3,0.2C39.8,43.7,39.6,43.7,39.6,43.7z M41.5,43.7l-0.3,0.4l-0.6,0.1l-0.3-0.4
		l0.1-0.4l0.4-0.3l0.5,0.2L41.5,43.7L41.5,43.7z M40.6,23.9L40.6,23.9L40.6,23.9L40.6,23.9z M40.8,28.2v-0.3l0.2-0.3l0.3,0.2
		l-0.1,0.4L40.8,28.2L40.8,28.2z M42.3,29.4L42,29.3L42,29.1l0.1-0.1l0.1-0.1l0.1,0.1l0.2,0.1L42.3,29.4L42.3,29.4z M42.2,27.9
		l0.3-0.1l-0.1,0.1l0.3,0.1L42.5,28L42.2,27.9L42.2,27.9z M42.4,41.6v-0.1h0.2L42.4,41.6L42.4,41.6z M43.3,26l0.3-0.1l-0.1-0.1
		L43.3,26l-0.1,0.1L43.3,26L43.3,26z M43.9,43.2l0.5,0.1l-0.1,0.4l-0.4,0.1l-0.1-0.3L43.9,43.2L43.9,43.2z M44.6,25.8l0.1,0.1
		l-0.1-0.3l-0.1,0l-0.2,0.2L44.6,25.8L44.6,25.8z M44.6,40.7l0.1-0.2l0.1,0.1v0.1l-0.1,0.1L44.6,40.7L44.6,40.7z M46,31.4l-0.1-0.3
		V31l0.1,0.1h0.3L46,31.4L46,31.4z M45.9,27.2L45.9,27.2L45.9,27.2L45.9,27.2L45.9,27.2z M46.2,32.7L46.2,32.7l-0.1-0.2L46.2,32.7
		L46.2,32.7z M46.5,40.4h-0.1l0.1-0.1l0.3-0.1L46.5,40.4L46.5,40.4z M47.5,34.6l0.2,0.2l-0.1-0.3C47.6,34.5,47.5,34.6,47.5,34.6z
		 M47.9,34.9H48l-0.3-0.2L47.9,34.9z M50,28.7L50,28.7l0.2,0.3l0.1-0.1l0.1-0.4l-0.2-0.1l-0.1,0.1L50,28.7L50,28.7z M50.6,42.8
		L50.6,42.8l-0.1,0.1L50.6,42.8L50.6,42.8z M50.9,24.4l-0.1-0.1l0.1-0.1l0.5-0.2v0.6L50.9,24.4L50.9,24.4z M51.3,23.5L51,23.6
		l0.1-0.3L51.3,23.5L51.3,23.5z M52.5,50.8H52l-0.1-0.4l-0.1-0.5l0.5-0.1l0.3,0.2l0.1,0.3L52.5,50.8L52.5,50.8z M52.2,39.4L52,39.3
		L52.2,39.4L52.2,39.4z M52.5,26.8h-0.4l0.1-0.3l0.1,0.1l0.3-0.1L52.5,26.8L52.5,26.8z M52.6,35.3l0.1,0.4l-0.1,0.2l-0.2-0.1
		l-0.3-0.3L52.6,35.3L52.6,35.3z M52.1,39.3L52.1,39.3l0.1-0.4L52.1,39.3L52.1,39.3L52.1,39.3z M52.4,33.9l0.5,0.1l0.5,0.1l-0.1,0.4
		l-0.3,0.1l-0.3,0l-0.4-0.2L52.4,33.9L52.4,33.9z M53.2,20.9l-0.1-0.1l-0.1-0.3h0.3l0.1,0.1v0.2L53.2,20.9L53.2,20.9z M54,50.5
		l-0.5,0.1l-0.1-0.5l0.4-0.2H54l0.3,0.1l0.2,0.4L54,50.5L54,50.5z M53.9,32.5l0.1,0.3l0,0.1L53.7,33l0.1-0.3L53.9,32.5L53.9,32.5z
		 M53.9,25.1L53.9,25.1L53.9,25.1l0.1,0.1L53.9,25.1L53.9,25.1L53.9,25.1z M55,27l-0.3-0.3l-0.1,0.1l0.1,0.1L55,27L55,27L55,27z
		 M55.7,29.4L55.7,29.4h0.1l0.1-0.1L55.7,29.4L55.7,29.4z M56.3,30.7l0.1,0.3h-0.3L56,30.9l0.1-0.2L56.3,30.7L56.3,30.7z M56.8,35.6
		l-0.1,0.2l-0.2-0.1v-0.1l0.2-0.1L56.8,35.6L56.8,35.6z M57,48.3l0.2-0.4h-0.3L57,48.3z M57.6,43.8l-0.2,0.1l-0.1-0.1l-0.1-0.2
		L57.6,43.8L57.6,43.8z M58.1,47.6h0.1l-0.1-0.1C58.1,47.5,58.1,47.6,58.1,47.6z M58.7,27.5v0.3l-0.1-0.2
		C58.6,27.5,58.7,27.5,58.7,27.5z M59.3,50.2l0.4,0.1l-0.4,0.1l-0.2-0.3l0.1-0.3L59.3,50.2L59.3,50.2z M60.6,45.9l0.5,0.2l0.3,0.3
		l-0.2,0.3l-0.3,0.3l-0.5-0.1l-0.1-0.6L60.6,45.9L60.6,45.9z M60.7,45.5L60.7,45.5h-0.1H60.7L60.7,45.5z M60.7,21.1l0.1-0.1l0.3,0.1
		H60.7l0.1,0.1L60.7,21.1z M60.9,49l0.1-0.2l0.1,0.1L60.9,49L60.9,49z M61.3,26L61.3,26l-0.3,0.1L61,26.2v0.2L61.3,26L61.3,26z
		 M61.1,48.8L61.1,48.8L61.1,48.8L61.1,48.8L61.1,48.8z M62.6,21.5l0.5,0.1l-0.2,0.5h-0.4L62,22.2l-0.3-0.4l0.4-0.3L62.6,21.5
		L62.6,21.5z M62.8,30.6l-0.1,0.1l-0.1-0.1L62.8,30.6L62.8,30.6z M63.7,21.3l0.5-0.1l0.4-0.1l0.1,0.6l-0.5-0.2L63.7,21.3L63.7,21.3z
		 M65.1,30.7L65,30.9l0.3-0.1l0.1-0.1L65.1,30.7L65.1,30.7z M65.6,21.3l-0.1-0.1l0.2-0.2l0.3,0.3l-0.3,0.1L65.6,21.3z M82,25.6
		c0-0.9-0.4-1.3-1.1-1.3c-0.8,0-1.4,0.6-1.9,1.3V32h-2.2v-9.1h1.9l0.2,1.1c0.8-0.9,1.8-1.4,2.9-1.4c1.7,0,2.5,1,2.5,2.7V32H82V25.6
		L82,25.6z M88.8,28.1c0.2,1.7,1,2.5,2.3,2.5c0.8,0,1.5-0.2,2.2-0.8l1,1.3c-0.9,0.7-2,1.2-3.4,1.2c-3,0-4.5-2-4.5-4.8
		c0-2.7,1.5-4.8,4.2-4.8c2.6,0,4,1.7,4,4.6c0,0.3,0,0.7-0.1,0.9L88.8,28.1L88.8,28.1z M88.8,26.7h3.7c0-1.6-0.5-2.5-1.8-2.5
		C89.6,24.2,88.9,25,88.8,26.7z M102.5,31.6c-0.6,0.5-1.5,0.7-2.3,0.7c-2.1,0-2.8-1.2-2.8-3v-4.8h-1.4v-1.6h1.4v-2l2.2-0.3v2.3h2.3
		l-0.2,1.6h-2v4.8c0,0.9,0.3,1.3,1,1.3c0.4,0,0.7-0.1,1.1-0.3C101.7,30.2,102.5,31.6,102.5,31.6z M106.2,30.3h4.6l-0.2,1.7h-6.9
		v-1.6l4.5-5.8H104v-1.7h6.7v1.6L106.2,30.3z M122.7,32h-2.8l-1.4-7h-0.1l-1.5,7h-2.7l-2.1-9.1h2.3l1.2,7.3h0.1l1.7-7.3h2.3l1.5,7.3
		h0.1l1.3-7.3h2.2L122.7,32L122.7,32z M127.8,28.1c0.2,1.7,1,2.5,2.3,2.5c0.8,0,1.5-0.2,2.2-0.8l1,1.3c-0.9,0.7-2,1.2-3.4,1.2
		c-3,0-4.5-2-4.5-4.8c0-2.7,1.5-4.8,4.2-4.8c2.5,0,4,1.7,4,4.6c0,0.3,0,0.7-0.1,0.9L127.8,28.1L127.8,28.1z M127.8,26.7h3.7
		c0-1.6-0.5-2.5-1.8-2.5C128.6,24.2,127.9,25,127.8,26.7z M136.1,32v-9.1h2l0.2,1.7c0.5-1.2,1.3-2,2.4-2c0.3,0,0.6,0,0.9,0.1
		l-0.4,2.1c-0.3-0.1-0.5-0.1-0.8-0.1c-1.1,0-1.8,1-2.1,2.3v5L136.1,32L136.1,32z M143.2,32V19.2l2.2-0.2v13H143.2z M145.5,27
		l3.1-4.1h2.4l-3.1,4l3.4,5.1h-2.6L145.5,27L145.5,27z M70.8,50.3v-9.1h2l0.2,1.7c0.5-1.2,1.3-2,2.4-2c0.3,0,0.6,0,0.9,0.1l-0.4,2.1
		c-0.3-0.1-0.5-0.1-0.8-0.1c-1.1,0-1.8,1-2.1,2.3v5L70.8,50.3L70.8,50.3z M79.5,46.5c0.2,1.7,1,2.5,2.3,2.5c0.8,0,1.5-0.2,2.2-0.8
		l1,1.3c-0.9,0.7-2,1.2-3.4,1.2c-3,0-4.5-2-4.5-4.8c0-2.7,1.5-4.8,4.2-4.8c2.5,0,4,1.7,4,4.6c0,0.3,0,0.7-0.1,0.9L79.5,46.5
		L79.5,46.5z M79.5,45h3.7c0-1.6-0.5-2.5-1.8-2.5C80.3,42.5,79.6,43.3,79.5,45L79.5,45z M93.6,48.1l1,1.5c-0.9,0.7-1.9,1.1-3,1.1
		c-2.9,0-4.4-1.9-4.4-4.8c0-2.8,1.6-4.9,4.4-4.9c1.1,0,2.1,0.3,3,1.1l-1,1.3c-0.7-0.5-1.2-0.7-1.9-0.7c-1.3,0-2.1,0.9-2.1,3.1
		c0,2.2,0.8,3,2.1,3C92.3,48.8,92.9,48.6,93.6,48.1z M96.6,50.3V37.6l2.2-0.2v4.9c0.8-0.8,1.7-1.3,2.8-1.3c1.7,0,2.5,1,2.5,2.7v6.7
		h-2.2v-6.5c0-0.9-0.3-1.3-1.1-1.3c-0.8,0-1.4,0.6-1.9,1.3v6.5L96.6,50.3L96.6,50.3z M108.9,46.5c0.2,1.7,1,2.5,2.3,2.5
		c0.8,0,1.5-0.2,2.2-0.8l1,1.3c-0.9,0.7-2,1.2-3.4,1.2c-3,0-4.5-2-4.5-4.8c0-2.7,1.5-4.8,4.2-4.8c2.6,0,4,1.7,4,4.6
		c0,0.3,0,0.7-0.1,0.9L108.9,46.5L108.9,46.5z M108.9,45h3.7c0-1.6-0.5-2.5-1.8-2.5C109.7,42.5,109,43.3,108.9,45L108.9,45z
		 M117.2,50.3v-9.1h2l0.2,1.7c0.5-1.2,1.3-2,2.4-2c0.3,0,0.6,0,0.9,0.1l-0.4,2.1c-0.3-0.1-0.5-0.1-0.8-0.1c-1.1,0-1.8,1-2.1,2.3v5
		L117.2,50.3L117.2,50.3z M130,48.1l1,1.5c-0.9,0.7-1.9,1.1-3,1.1c-2.9,0-4.4-1.9-4.4-4.8c0-2.8,1.6-4.9,4.4-4.9
		c1.1,0,2.1,0.3,3,1.1l-1,1.3c-0.7-0.5-1.2-0.7-1.9-0.7c-1.3,0-2.1,0.9-2.1,3.1c0,2.2,0.8,3,2.1,3C128.8,48.8,129.3,48.6,130,48.1
		L130,48.1z M133,50.3V37.6l2.2-0.2v4.9c0.8-0.8,1.7-1.3,2.8-1.3c1.7,0,2.5,1,2.5,2.7v6.7h-2.2v-6.5c0-0.9-0.4-1.3-1.1-1.3
		c-0.8,0-1.4,0.6-1.9,1.3v6.5L133,50.3L133,50.3z M145.3,46.5c0.2,1.7,1,2.5,2.3,2.5c0.8,0,1.5-0.2,2.2-0.8l1,1.3
		c-0.9,0.7-2,1.2-3.4,1.2c-3,0-4.5-2-4.5-4.8c0-2.7,1.5-4.8,4.2-4.8c2.6,0,4,1.7,4,4.6c0,0.3,0,0.7-0.1,0.9L145.3,46.5L145.3,46.5z
		 M145.3,45h3.7c0-1.6-0.5-2.5-1.8-2.5C146.1,42.5,145.4,43.3,145.3,45L145.3,45z"/>
</g>
</svg>
