<svg version="1.1" xmlns="http://www.w3.org/2000/svg" x="0" y="0" viewBox="0 0 345 64" xml:space="preserve"><path d="M15.9 46.7c0.3-1.8 0.8-4.3 1.5-7.5 0 0-9.4 9.1-9.5 9.2 3.6 2.7 6.5-0.3 6.7-0.4C14.6 48 15.2 47.4 15.9 46.7M24 52.9c0 0.9 0.8 1.7 1.7 1.7 0.9 0 1.7-0.8 1.7-1.7v-7c-1.2 1.1-2.4 2.1-3.4 2.9V52.9zM17.8 37.3c0.5-2.4 1.2-5 1.9-7.9 0 0-15.4 14.3-15.5 14.4 3.8 2.5 6.6 0 6.9-0.3C11.5 43.3 14.8 40.2 17.8 37.3M8.7 38.1c0.3-0.2 7.4-6.8 11.6-10.6 0.4-1.4 0.8-2.9 1.3-4.5 -0.3-0.2-0.7-0.6-1.2-1 0 0-18.4 16-18.6 16.1C5.4 41.1 8.5 38.3 8.7 38.1M36.6 52.9c0 0.9 0.8 1.7 1.7 1.7 0.9 0 1.7-0.8 1.7-1.7v-4.1c-1-0.8-2.1-1.8-3.4-2.9V52.9zM32.4 52.8c0 0.9 0.8 1.7 1.7 1.7 0.9 0 1.7-0.8 1.7-1.7v-7.6c-1.1-1-2.3-2.1-3.4-3.2V52.8zM28.2 52.8c0 0.9 0.8 1.7 1.7 1.7 0.9 0 1.7-0.8 1.7-1.7V42.1c-1.1 1.1-2.3 2.2-3.4 3.2V52.8zM0 24.1c3.5 3.1 6.8 0.6 7 0.4 0.3-0.3 6.8-5.4 10.4-8.4 -0.1-0.4-0.1-0.8-0.1-1.2 0 0 0-0.7 0-0.7v-3.8C10.5 15.7 0.1 24 0 24.1M42.5 23.1c0.4 1.5 0.9 3 1.3 4.5 4.2 3.9 11.3 10.4 11.6 10.6 0.2 0.2 3.3 3 6.9 0 -0.1-0.1-18.6-16.1-18.6-16.1C43.2 22.5 42.8 22.8 42.5 23.1M46.2 37.3c3 2.9 6.3 6 6.7 6.3 0.3 0.3 3.1 2.8 6.9 0.3 -0.1-0.1-15.5-14.4-15.5-14.4C45 32.3 45.6 35 46.2 37.3M44.4 21.3c4 3.5 12 10.3 12.7 10.8 0.3 0.2 3.4 2.5 6.8-0.4 -0.1-0.1-17.5-14.3-17.5-14.3C46 19 45.2 20.3 44.4 21.3M6.9 32.1c0.7-0.5 8.7-7.4 12.7-10.8 -0.8-1-1.5-2.3-2-3.9 0 0-17.4 14.2-17.5 14.3C3.5 34.6 6.6 32.3 6.9 32.1M48.1 46.7c0.7 0.7 1.3 1.3 1.3 1.3 0.1 0.1 3.1 3.1 6.7 0.4 -0.1-0.1-9.5-9.2-9.5-9.2C47.3 42.4 47.8 45 48.1 46.7M51.4 51.4c-0.4-0.2-3.6-1.8-3.6-1.8 -1.3-7.3-2.7-13.4-3.9-17.9 -0.7-2.8-1.4-5.9-2.2-9 1-0.7 4.1-3.1 4.2-7.7 0 0 0-0.4 0-0.7V8.2l17.5 13.6c-0.3-1.6-2.4-8.5-9.5-15.3 0 0-6-5.7-9.7-5.7 -0.6 0-3.4 0.2-3.4 4.2v7.1c0 0 0 1.5-1.2 1.5h-0.3c-0.7-2.4-1.4-4.9-2.2-7.3 -0.1-0.3-0.2-0.6-0.3-0.9 -1-3.3-2.5-4.3-3.6-4.8 -0.7-0.4-1.8-0.6-3.3-0.6 -3.9 0.1-4.6 1.6-4.7 2.1 -0.1 0.9 0.2 2 0.3 2.4 0-0.3 0-0.6 0.3-1 0.3-0.3 0.8-0.6 1.5-0.6h2.8c0 0 0.4 0 0.4 0.3 0 0.3-0.4 0.3-0.4 0.3h-2.6c-0.6 0-1 0.1-1.2 0.4 0 0-0.1 0.1-0.1 0.1 0 0 0.1 0 0.1 0 0.2 0 0.4 0 0.6 0 0.4 0.1 1.4 0.4 1.4 1.3 0 0.1 0 0.3-0.1 0.4 -1 2.7-2 5.4-2.9 8h-1c-1.2 0-1.2-1.5-1.2-1.5V5c0-4-2.8-4.2-3.4-4.2 -3.7 0-9.7 5.7-9.7 5.7 -7.1 6.8-9.2 13.7-9.5 15.3L18.1 8.2v6c0 0.3 0 0.7 0 0.7 0.1 5 3.6 7.4 4.4 7.8 -4.6 15.5-6.4 26.8-6.4 26.8s-3.1 1.6-3.6 1.8c0 0-1 0.4-0.5 1.4 0 0 0.2 0.5 0.7 0.6 0 0-0.4-0.7 0.1-0.9l2.8-1.2c0 0-1.3 1.7-1.6 2.1 0 0-0.7 0.8 0.2 1.5 0 0 0.4 0.4 0.9 0.2 0 0-0.7-0.4-0.3-0.8l2.2-2.4c0 0-0.6 1.9-0.8 2.4 0 0-0.4 1 0.6 1.4 0 0 0.5 0.2 0.9 0 0 0-0.8-0.2-0.6-0.7l0.6-1.3c0 0 0.5-1.3 1.3-1.4l0.4-0.1c1.6-0.2 2.3 0 2.3 0 0.6 0.2 0.2 1 0.2 1 0.6-0.2 0.7-0.7 0.7-0.7 0.3-1.1-0.7-1.5-0.8-1.6 -0.5-0.2-0.9-0.4-0.9-0.4s6.4-4.9 11.2-9.9c4.9 5 11.2 9.9 11.2 9.9s-0.4 0.2-0.9 0.4c0 0-1.1 0.5-0.8 1.6 0 0 0.2 0.6 0.7 0.7 0 0-0.4-0.8 0.2-1 0 0 0.7-0.2 2.3 0l0.4 0.1c0.8 0.1 1.3 1.4 1.3 1.4l0.6 1.4c0.2 0.5-0.6 0.7-0.6 0.7 0.4 0.3 0.9 0 0.9 0 1-0.4 0.6-1.4 0.6-1.4 -0.2-0.5-0.8-2.4-0.8-2.4l2.2 2.4c0.4 0.4-0.3 0.8-0.3 0.8 0.5 0.1 0.9-0.2 0.9-0.2 0.8-0.7 0.2-1.5 0.1-1.5 -0.3-0.4-1.6-2.1-1.6-2.1l2.8 1.2c0.5 0.2 0.1 0.9 0.1 0.9 0.5-0.1 0.7-0.6 0.7-0.6C52.4 51.8 51.4 51.4 51.4 51.4M29.5 2.1c-0.4 0-0.7-0.3-0.7-0.7 0-0.4 0.3-0.7 0.7-0.7 0.4 0 0.7 0.3 0.7 0.7C30.3 1.8 29.9 2.1 29.5 2.1M22.4 15.9c0-0.2 0-0.3 0.1-0.5 0.1 0.3 0.4 0.5 0.8 0.5 0.3 0 0.6-0.2 0.8-0.5 0.1 0.1 0.1 0.3 0.1 0.5 0 0.6-0.4 1.1-0.9 1.1S22.4 16.5 22.4 15.9M22.5 31.1c0.1 0.3 0.4 0.5 0.8 0.5 0.3 0 0.6-0.2 0.8-0.5 0.1 0.1 0.1 0.3 0.1 0.5 0 0.6-0.4 1.1-0.9 1.1s-0.9-0.5-0.9-1.1C22.4 31.4 22.4 31.2 22.5 31.1M20.4 44.4c-0.5 0-0.9-0.5-0.9-1.1 0-0.2 0-0.3 0.1-0.5 0.1 0.3 0.4 0.5 0.8 0.5 0.3 0 0.6-0.2 0.8-0.5 0.1 0.1 0.1 0.3 0.1 0.5C21.3 43.9 20.9 44.4 20.4 44.4M23.3 40.5c-0.5 0-0.9-0.5-0.9-1.1 0-0.2 0-0.3 0.1-0.5 0.1 0.3 0.4 0.5 0.8 0.5 0.3 0 0.6-0.2 0.8-0.5 0.1 0.1 0.1 0.3 0.1 0.5C24.1 40 23.7 40.5 23.3 40.5M24.8 44.4c-0.5 0-0.9-0.5-0.9-1.1 0-0.2 0-0.3 0.1-0.5 0.1 0.3 0.4 0.5 0.8 0.5 0.3 0 0.6-0.2 0.8-0.5 0.1 0.1 0.1 0.3 0.1 0.5C25.6 43.9 25.3 44.4 24.8 44.4M25.4 36.6c-0.5 0-0.9-0.5-0.9-1.1 0-0.2 0-0.3 0.1-0.5 0.1 0.3 0.4 0.5 0.8 0.5 0.3 0 0.6-0.2 0.8-0.5 0.1 0.1 0.1 0.3 0.1 0.5C26.3 36.1 25.9 36.6 25.4 36.6M25.4 28.8c-0.5 0-0.9-0.5-0.9-1.1 0-0.2 0-0.3 0.1-0.5 0.1 0.3 0.4 0.5 0.8 0.5 0.3 0 0.6-0.2 0.8-0.5 0.1 0.1 0.1 0.3 0.1 0.5C26.3 28.3 25.9 28.8 25.4 28.8M25.4 20.9c-0.5 0-0.9-0.5-0.9-1.1 0-0.2 0-0.3 0.1-0.5 0.1 0.3 0.4 0.5 0.8 0.5 0.3 0 0.6-0.2 0.8-0.5 0.1 0.1 0.1 0.3 0.1 0.5C26.3 20.4 25.9 20.9 25.4 20.9M27.6 40.5c-0.5 0-0.9-0.5-0.9-1.1 0-0.2 0-0.3 0.1-0.5 0.1 0.3 0.4 0.5 0.8 0.5 0.3 0 0.6-0.2 0.8-0.5 0.1 0.1 0.1 0.3 0.1 0.5C28.5 40 28.1 40.5 27.6 40.5M27.6 32.7c-0.5 0-0.9-0.5-0.9-1.1 0-0.2 0-0.3 0.1-0.5 0.1 0.3 0.4 0.5 0.8 0.5 0.3 0 0.6-0.2 0.8-0.5 0.1 0.1 0.1 0.3 0.1 0.5C28.5 32.2 28.1 32.7 27.6 32.7M27.6 24.9c-0.5 0-0.9-0.5-0.9-1.1 0-0.2 0-0.3 0.1-0.5 0.1 0.3 0.4 0.5 0.8 0.5 0.3 0 0.6-0.2 0.8-0.5 0.1 0.1 0.1 0.3 0.1 0.5C28.5 24.4 28.1 24.9 27.6 24.9M27.6 17c-0.5 0-0.9-0.5-0.9-1.1 0-0.2 0-0.3 0.1-0.5 0.1 0.3 0.4 0.5 0.8 0.5 0.3 0 0.6-0.2 0.8-0.5 0.1 0.1 0.1 0.3 0.1 0.5C28.5 16.5 28.1 17 27.6 17M29.8 36.6c-0.5 0-0.9-0.5-0.9-1.1 0-0.2 0-0.3 0.1-0.5 0.1 0.3 0.4 0.5 0.8 0.5 0.3 0 0.6-0.2 0.8-0.5 0.1 0.1 0.1 0.3 0.1 0.5C30.7 36.1 30.3 36.6 29.8 36.6M29.8 28.8c-0.5 0-0.9-0.5-0.9-1.1 0-0.2 0-0.3 0.1-0.5 0.1 0.3 0.4 0.5 0.8 0.5 0.3 0 0.6-0.2 0.8-0.5 0.1 0.1 0.1 0.3 0.1 0.5C30.7 28.3 30.3 28.8 29.8 28.8M29.8 20.9c-0.5 0-0.9-0.5-0.9-1.1 0-0.2 0-0.3 0.1-0.5 0.1 0.3 0.4 0.5 0.8 0.5 0.3 0 0.6-0.2 0.8-0.5 0.1 0.1 0.1 0.3 0.1 0.5C30.7 20.4 30.3 20.9 29.8 20.9M29.8 13.1c-0.5 0-0.9-0.5-0.9-1.1 0-0.2 0-0.3 0.1-0.5 0.1 0.3 0.4 0.5 0.8 0.5 0.3 0 0.6-0.2 0.8-0.5 0.1 0.1 0.1 0.3 0.1 0.5C30.7 12.6 30.3 13.1 29.8 13.1M32 32.7c-0.5 0-0.9-0.5-0.9-1.1 0-0.2 0-0.3 0.1-0.5 0.1 0.3 0.4 0.5 0.8 0.5 0.3 0 0.6-0.2 0.8-0.5 0.1 0.1 0.1 0.3 0.1 0.5C32.9 32.2 32.5 32.7 32 32.7M32 24.9c-0.5 0-0.9-0.5-0.9-1.1 0-0.2 0-0.3 0.1-0.5 0.1 0.3 0.4 0.5 0.8 0.5 0.3 0 0.6-0.2 0.8-0.5 0.1 0.1 0.1 0.3 0.1 0.5C32.9 24.4 32.5 24.9 32 24.9M32 17c-0.5 0-0.9-0.5-0.9-1.1 0-0.2 0-0.3 0.1-0.5 0.1 0.3 0.4 0.5 0.8 0.5 0.3 0 0.6-0.2 0.8-0.5 0.1 0.1 0.1 0.3 0.1 0.5C32.9 16.5 32.5 17 32 17M40 15.4c0.1 0.3 0.4 0.5 0.8 0.5 0.3 0 0.6-0.2 0.8-0.5 0.1 0.1 0.1 0.3 0.1 0.5 0 0.6-0.4 1.1-0.8 1.1 -0.5 0-0.8-0.5-0.8-1.1C39.9 15.8 39.9 15.6 40 15.4M40 31.1c0.1 0.3 0.4 0.5 0.8 0.5 0.3 0 0.6-0.2 0.8-0.5 0.1 0.1 0.1 0.3 0.1 0.5 0 0.6-0.4 1.1-0.8 1.1 -0.5 0-0.8-0.5-0.8-1.1C39.9 31.4 39.9 31.2 40 31.1M37.8 19.3c0.1 0.3 0.4 0.5 0.8 0.5 0.3 0 0.6-0.2 0.8-0.5 0.1 0.1 0.1 0.3 0.1 0.5 0 0.6-0.4 1.1-0.9 1.1s-0.9-0.5-0.9-1.1C37.7 19.6 37.7 19.5 37.8 19.3M37.8 27.2c0.1 0.3 0.4 0.5 0.8 0.5 0.3 0 0.6-0.2 0.8-0.5 0.1 0.1 0.1 0.3 0.1 0.5 0 0.6-0.4 1.1-0.9 1.1s-0.9-0.5-0.9-1.1C37.7 27.5 37.7 27.3 37.8 27.2M34.2 36.6c-0.5 0-0.9-0.5-0.9-1.1 0-0.2 0-0.3 0.1-0.5 0.1 0.3 0.4 0.5 0.8 0.5 0.3 0 0.6-0.2 0.8-0.5 0.1 0.1 0.1 0.3 0.1 0.5C35.1 36.1 34.7 36.6 34.2 36.6M34.2 28.8c-0.5 0-0.9-0.5-0.9-1.1 0-0.2 0-0.3 0.1-0.5 0.1 0.3 0.4 0.5 0.8 0.5 0.3 0 0.6-0.2 0.8-0.5 0.1 0.1 0.1 0.3 0.1 0.5C35.1 28.3 34.7 28.8 34.2 28.8M34.2 20.9c-0.5 0-0.9-0.5-0.9-1.1 0-0.2 0-0.3 0.1-0.5 0.1 0.3 0.4 0.5 0.8 0.5 0.3 0 0.6-0.2 0.8-0.5 0.1 0.1 0.1 0.3 0.1 0.5C35.1 20.4 34.7 20.9 34.2 20.9M34.2 13.1c-0.5 0-0.9-0.5-0.9-1.1 0-0.2 0-0.3 0.1-0.5 0.1 0.3 0.4 0.5 0.8 0.5 0.3 0 0.6-0.2 0.8-0.5 0.1 0.1 0.1 0.3 0.1 0.5C35.1 12.6 34.7 13.1 34.2 13.1M36.4 40.5c-0.5 0-0.9-0.5-0.9-1.1 0-0.2 0-0.3 0.1-0.5 0.1 0.3 0.4 0.5 0.8 0.5 0.3 0 0.6-0.2 0.8-0.5 0.1 0.1 0.1 0.3 0.1 0.5C37.2 40 36.9 40.5 36.4 40.5M36.4 32.7c-0.5 0-0.9-0.5-0.9-1.1 0-0.2 0-0.3 0.1-0.5 0.1 0.3 0.4 0.5 0.8 0.5 0.3 0 0.6-0.2 0.8-0.5 0.1 0.1 0.1 0.3 0.1 0.5C37.2 32.2 36.9 32.7 36.4 32.7M36.4 24.9c-0.5 0-0.9-0.5-0.9-1.1 0-0.2 0-0.3 0.1-0.5 0.1 0.3 0.4 0.5 0.8 0.5 0.3 0 0.6-0.2 0.8-0.5 0.1 0.1 0.1 0.3 0.1 0.5C37.2 24.4 36.9 24.9 36.4 24.9M36.4 17c-0.5 0-0.9-0.5-0.9-1.1 0-0.2 0-0.3 0.1-0.5 0.1 0.3 0.4 0.5 0.8 0.5 0.3 0 0.6-0.2 0.8-0.5 0.1 0.1 0.1 0.3 0.1 0.5C37.2 16.5 36.9 17 36.4 17M37.7 35.5c0-0.2 0-0.3 0.1-0.5 0.1 0.3 0.4 0.5 0.8 0.5 0.3 0 0.6-0.2 0.8-0.5 0.1 0.1 0.1 0.3 0.1 0.5 0 0.6-0.4 1.1-0.9 1.1S37.7 36.1 37.7 35.5M39.2 44.4c-0.5 0-0.9-0.5-0.9-1.1 0-0.2 0-0.3 0.1-0.5 0.1 0.3 0.4 0.5 0.8 0.5 0.3 0 0.6-0.2 0.8-0.5 0.1 0.1 0.1 0.3 0.1 0.5C40.1 43.9 39.7 44.4 39.2 44.4M40.7 40.5c-0.5 0-0.9-0.5-0.9-1.1 0-0.2 0-0.3 0.1-0.5 0.1 0.3 0.4 0.5 0.8 0.5 0.3 0 0.6-0.2 0.8-0.5 0.1 0.1 0.1 0.3 0.1 0.5C41.6 40 41.2 40.5 40.7 40.5M43.6 44.4c-0.5 0-0.9-0.5-0.9-1.1 0-0.2 0-0.3 0.1-0.5 0.1 0.3 0.4 0.5 0.8 0.5 0.3 0 0.6-0.2 0.8-0.5 0.1 0.1 0.1 0.3 0.1 0.5C44.5 43.9 44.1 44.4 43.6 44.4M46.7 14.2c0 0 0 0.7 0 0.7 0 0.4 0 0.9-0.1 1.2 3.6 2.9 10.1 8.1 10.4 8.4 0.2 0.2 3.5 2.7 7-0.4 -0.1-0.1-10.5-8.4-17.3-13.7V14.2z"/><path d="M126.1 35.5c2.2 0 2.1-0.3 2.1-1.5V23.2c0-1.2 0-1.5-2.1-1.5v-0.7c1 0 2.1 0 3.1 0 1.4 0 4 0 4.9 0 1.6 0 3.3 0.1 4.6 1.1 1.8 1.5 2 4 2 6.2 0 5.4-1.3 7.7-6.8 7.9 -1.6 0-3.1 0-4.7 0 -1 0-2.1 0-3.1 0V35.5zM130.2 35.2c0.9 0.1 1.6 0.1 2.2 0.1 4.7 0 5.9-1.6 5.9-6.3 0-4.2-0.2-7.2-5.1-7.2 -0.9 0-1.9 0-3 0.2V35.2zM144.9 31.1c0 2 0 4.6 2.9 4.6 2.3 0 2.4-1.6 2.6-2.6 0-0.4 0.4-0.4 0.8-0.4 0.3 0 0.7 0 0.7 0.4 -0.4 2.4-2.1 3.3-4.4 3.3 -3.8 0-4.5-2.6-4.5-5.9 0-3 1.8-4.8 4.8-4.8 3.4 0 4.5 2.2 4.3 5.4H144.9zM150 30.3c0.1-2-0.3-3.9-2.5-3.9 -2.2 0-2.6 2-2.6 3.9H150zM162.1 34.9c-0.7 0.9-2.4 1.5-3.5 1.5 -2 0-3.3-0.6-3.3-2.8v-5.5c0-1.3-0.1-1.5-2-1.5v-0.7h3.8v6.5c0 1.7 0.1 3 2.2 3 2.6 0 2.7-1.7 2.7-3.8v-3.6c0-1.2-0.1-1.5-1.9-1.5v-0.7h3.7v8c0 1.3 0.1 1.5 2 1.5v0.7c-0.7 0-1.3 0-2 0 -0.6 0-1.2 0-1.8 0V34.9zM170.7 26.8v6.3c0 1.1 0.1 2.4 1.5 2.4 0.4 0 0.7-0.1 1.1-0.2l0.4-0.2 0.3 0.6c-0.7 0.3-1.8 0.6-2.6 0.6 -2.3 0-2.4-1.6-2.4-3.4v-6.2h-1.7v-0.8h1.7v-3l1.8-0.8v3.7h2.5v0.8H170.7zM175.5 32.8h1.2c0.2 1.4-0.2 2.8 2.2 2.8 1.2 0 2.6-0.6 2.6-2 0-1.4-1.4-1.7-2.8-2s-2.8-0.8-2.8-2.6c0-2.5 1.8-3.3 4.1-3.3 0.9 0 1.9 0.2 2.8 0.6v2.6h-1.2c-0.2-1.6 0-2.4-1.9-2.4 -1.7 0.1-2.1 0.7-2.1 2 0 0.6 0.5 1.2 1.3 1.4 1.9 0.6 4.4 0.7 4.4 3.3 0 2.9-2.7 3.3-5 3.3 -0.9 0-1.8-0.2-2.6-0.6V32.8zM194.5 33v2.6c-1.4 0.7-2.6 0.9-4.1 0.9 -3.8 0-4.9-1.8-4.9-5.4 0-3.5 1.3-5.3 5-5.3 1.1 0 3.2 0.2 4 1v2.3h-1.2c-0.2-1.1 0.1-2.6-2.5-2.6 -3 0-3.3 2.2-3.3 4.6 0 2.4 0.3 4.7 3.3 4.7 2.5 0 2.3-1.1 2.6-2.7H194.5zM207.1 33.9c0 1.3 0.1 1.6 2 1.6v0.7c-1 0-1.9 0-2.9 0 -1 0-1.9 0-2.9 0v-0.7c1.7-0.1 2 0 2-1.6v-3.9c0-1.8 0-3.4-2.3-3.4 -2.2 0-2.8 1.3-2.8 3.3v4c0 1.3 0.1 1.6 2 1.6v0.7c-1 0-1.9 0-2.9 0 -1 0-1.9 0-2.9 0v-0.7c1.7-0.1 2 0 2-1.6V22c0-1.3-0.1-1.6-2-1.6v-0.7h3.8v7.4h0c0.5-0.7 1.4-1.4 3.6-1.5 2.9 0 3.2 1.4 3.2 3.8V33.9zM212.9 31.1c0 2 0 4.6 2.9 4.6 2.3 0 2.4-1.6 2.6-2.6 0-0.4 0.4-0.4 0.8-0.4 0.3 0 0.7 0 0.7 0.4 -0.4 2.4-2.1 3.3-4.4 3.3 -3.8 0-4.5-2.6-4.5-5.9 0-3 1.8-4.8 4.8-4.8 3.4 0 4.5 2.2 4.3 5.4H212.9zM218 30.3c0.1-2-0.3-3.9-2.5-3.9s-2.6 2-2.6 3.9H218zM225 27c0.6-0.7 1.3-1.3 2.2-1.3 1.2 0 2 0.6 2 1.8 0 0.7 0 1.2-0.9 1.2 -0.8 0-0.8-0.4-0.8-1.1 0-0.6-0.4-0.9-0.9-0.9 -1.3 0-1.5 1.7-1.5 2.6v4.6c0 1.4 0.1 1.6 2.2 1.6v0.7c-1.2 0-2.1 0-3.1 0 -1 0-1.9 0-2.9 0v-0.7c1.8 0 2-0.2 2-1.6v-5.8c0-1.4-0.2-1.5-2-1.6v-0.7h3.7V27zM237.1 35.5c2.2 0 2.1-0.3 2.1-1.5V23.2c0-1.2 0-1.5-2.1-1.5v-0.7c1 0 2.1 0 3.1 0 0.6 0 3.3 0 3.9 0 2.8 0 5 0.3 5 3.7 0 2.2-1 3.1-3.1 3.5v0c2.4 0.3 3.6 1.4 3.6 3.8 0 1.7-0.4 2.8-1.9 3.6 -1 0.6-2.9 0.6-4.1 0.7 -1.1 0-2.2 0-3.4 0 -1 0-2.1 0-3.1 0V35.5zM241.3 27.8h3c1.9 0 2.7-1.1 2.7-3 0-2.6-0.9-3-3.3-3 -0.8 0-1.6 0.1-2.4 0.1V27.8zM241.3 35.3l1.2 0.1c1.1 0 2.1 0 3.2-0.3 1.5-0.4 1.7-1.8 1.7-3.1 0-2.6-1-3.3-3.5-3.3h-2.6V35.3zM260.5 34.9c-0.7 0.9-2.4 1.5-3.5 1.5 -2 0-3.3-0.6-3.3-2.8v-5.5c0-1.3-0.1-1.5-2-1.5v-0.7h3.8v6.5c0 1.7 0.1 3 2.2 3 2.6 0 2.7-1.7 2.7-3.8v-3.6c0-1.2-0.1-1.5-1.9-1.5v-0.7h3.7v8c0 1.3 0.1 1.5 2 1.5v0.7c-0.7 0-1.3 0-2 0 -0.6 0-1.2 0-1.8 0V34.9zM270.3 27.2c1.3-1 2-1.5 3.7-1.5 2.9 0 3.2 1.4 3.2 3.8v4.4c0 1.3 0.1 1.6 1.9 1.6v0.7c-0.9 0-1.9 0-2.8 0 -1 0-1.9 0-2.8 0v-0.7c1.6-0.1 1.9 0 1.9-1.6v-3.9c0-1.8 0-3.4-2.3-3.4 -2.3 0-2.7 1.3-2.7 3.3v4c0 1.2 0.1 1.6 1.9 1.6v0.7c-0.9 0-1.8 0-2.8 0 -1 0-1.9 0-2.9 0v-0.7c1.7-0.1 2 0 2-1.6v-5.8c0-1.4-0.2-1.5-2-1.6v-0.7h3.7V27.2zM289.1 22c0-1.4-0.2-1.5-2-1.6v-0.7h3.8v14.2c0 1.3 0.1 1.6 2 1.6v0.7c-0.7 0-1.3 0-2 0 -0.6 0-1.2 0-1.8 0v-1.3c-0.9 1-1.9 1.5-3.3 1.5 -3.1 0-4.6-1.9-4.6-4.9 0-3.1 1.1-5.8 4.7-5.8 1.3 0 2.2 0.3 3.2 1.2V22zM289 30.6c0-2.3-0.2-4.1-2.9-4.1 -2.9 0-2.9 2.9-2.9 5 0 1.8 0.6 4.1 2.9 4.1 2.3 0 2.9-1.5 2.9-3.5V30.6zM296.8 31.1c0 2 0 4.6 2.9 4.6 2.3 0 2.4-1.6 2.6-2.6 0-0.4 0.4-0.4 0.8-0.4 0.3 0 0.7 0 0.7 0.4 -0.4 2.4-2.1 3.3-4.4 3.3 -3.8 0-4.5-2.6-4.5-5.9 0-3 1.8-4.8 4.8-4.8 3.4 0 4.5 2.2 4.3 5.4H296.8zM301.9 30.3c0.1-2-0.3-3.9-2.5-3.9 -2.2 0-2.6 2-2.6 3.9H301.9zM306 32.8h1.2c0.2 1.4-0.2 2.8 2.2 2.8 1.2 0 2.6-0.6 2.6-2 0-1.4-1.4-1.7-2.8-2s-2.8-0.8-2.8-2.6c0-2.5 1.8-3.3 4.1-3.3 0.9 0 1.9 0.2 2.8 0.6v2.6h-1.2c-0.2-1.6 0-2.4-1.9-2.4 -1.7 0.1-2.1 0.7-2.1 2 0 0.6 0.5 1.2 1.3 1.4 1.9 0.6 4.4 0.7 4.4 3.3 0 2.9-2.7 3.3-5 3.3 -0.9 0-1.8-0.2-2.6-0.6V32.8zM319.1 26.8v6.3c0 1.1 0.1 2.4 1.5 2.4 0.4 0 0.7-0.1 1.1-0.2l0.4-0.2 0.3 0.6c-0.7 0.3-1.8 0.6-2.6 0.6 -2.3 0-2.4-1.6-2.4-3.4v-6.2h-1.7v-0.8h1.7v-3l1.8-0.8v3.7h2.5v0.8H319.1zM329.8 28.1c0-1.2-0.8-1.6-2.1-1.6 -1.9 0-2 0.8-2 2.1 0 0.5-0.5 0.6-1 0.6 -0.6 0-0.8-0.5-0.7-1.1 0.2-2 2.3-2.3 3.9-2.3 2.7 0 3.6 0.9 3.6 3.5v4.8c0 1.4 0.2 1.5 1.8 1.5v0.7c-0.4 0-1.1 0-1.8 0 -0.6 0-1.2 0-1.7 0v-0.9c-0.8 0.7-1.8 1-2.8 1 -2.3 0-3.6-0.7-3.6-3.1 0-3.4 3.8-2.9 6.3-2.9V28.1zM328.6 31.1c-1.8 0-3.1 0.2-3.1 2.3 0 1.3 0.5 2.2 1.9 2.2 1.9 0 2.4-0.7 2.4-2.4v-2.1H328.6zM344 25.8l0.3 0 0 0.9 -1.9-0.1c0.6 0.7 0.9 1.6 0.9 2.6 0 2.6-2.2 3.6-4.6 3.6 -1.4-0.1-1.9-0.4-2.2-0.5 -0.4 1.3-0.2 2.4 1.1 2.4 1 0 1.9-0.1 2.8-0.1 2.2 0 3.9 0.5 3.9 3 0 2.7-2.8 4-5.2 4 -1.8 0-4.9-0.4-4.9-2.8 0-1.4 0.6-2 1.7-2.7 -0.7-1.3-0.5-2.8 0-4.1 -0.8-0.7-1.2-1.6-1.2-2.7 0-2.4 1.9-3.7 4.2-3.7 0.9 0 1.8 0.1 2.6 0.4L344 25.8zM336.7 36.3c-0.6 0.9-1 1.8-0.8 2.8 0.4 1.4 2 1.9 3.4 1.9 1.8 0 4.4-1.5 3.3-3.8 -0.5-0.9-1.5-0.9-2.4-0.8H336.7zM341.4 29.3c0-1.5-0.5-2.9-2.4-2.9 -1.8 0-2.4 1.2-2.4 2.9 0 1.7 0.6 2.9 2.4 2.9C340.8 32.2 341.4 31 341.4 29.3z"/></svg>