<?xml version="1.0" encoding="utf-8"?>
<!-- Generator: Adobe Illustrator 21.0.0, SVG Export Plug-In . SVG Version: 6.00 Build 0)  -->
<svg version="1.1" id="Layer_1" xmlns="http://www.w3.org/2000/svg" xmlns:xlink="http://www.w3.org/1999/xlink" x="0px" y="0px"
	 viewBox="0 0 742 320" style="enable-background:new 0 0 742 320;" xml:space="preserve">
<style type="text/css">
	.st0{fill:#B2B2B2;}
</style>
<rect x="62.7" y="90.7" class="st0" width="159.3" height="6.7"/>
<g id="Background">
</g>
<path d="M272.6,179c8.6,0,8.2-1.2,8.2-5.9v-42.3c0-4.7,0-5.9-8.2-5.9v-2.7c3.9,0,8.2,0,12.1,0c2.3,0,12.9,0,15.3,0
	c11,0,19.6,1.2,19.6,14.5c0,8.6-3.9,12.1-12.1,13.7l0,0c9.4,1.2,14.1,5.5,14.1,14.9c0,6.7-1.6,11-7.4,14.1c-3.9,2.3-11.3,2.3-16,2.7
	c-4.3,0-8.6,0-13.3,0c-3.9,0-8.2,0-12.1,0V179H272.6z M289.1,148.8h11.7c7.4,0,10.6-4.3,10.6-11.7c0-10.2-3.5-11.7-12.9-11.7
	c-3.1,0-6.3,0.4-9.4,0.4L289.1,148.8L289.1,148.8z M289.1,178.2l4.7,0.4c4.3,0,8.2,0,12.5-1.2c5.9-1.6,6.7-7,6.7-12.1
	c0-10.2-3.9-12.9-13.7-12.9h-10.2V178.2L289.1,178.2z M364.2,176.6c-2.7,3.5-9.4,5.9-13.7,5.9c-7.8,0-12.9-2.3-12.9-11V150
	c0-5.1-0.4-5.9-7.8-5.9v-2.7h14.9v25.4c0,6.7,0.4,11.7,8.6,11.7c10.2,0,10.6-6.7,10.6-14.9v-14.1c0-4.7-0.4-5.9-7.4-5.9V141H371
	v31.3c0,5.1,0.4,5.9,7.8,5.9v2.7c-2.7,0-5.1,0-7.8,0c-2.3,0-4.7,0-7,0v-4.3L364.2,176.6L364.2,176.6z M402.5,146.5
	c5.1-3.9,7.8-5.9,14.5-5.9c11.3,0,12.5,5.5,12.5,14.9v17.2c0,5.1,0.4,6.3,7.4,6.3v2.7c-3.5,0-7.4,0-11,0c-3.9,0-7.4,0-11,0V179
	c6.3-0.4,7.4,0,7.4-6.3v-15.3c0-7,0-13.3-9-13.3s-10.6,5.1-10.6,12.9v15.7c0,4.7,0.4,6.3,7.4,6.3v2.7c-3.5,0-7,0-11,0
	c-3.9,0-7.4,0-11.3,0V179c6.7-0.4,7.8,0,7.8-6.3V150c0-5.5-0.8-5.9-7.8-6.3V141h14.5L402.5,146.5L402.5,146.5z M476.1,126.2
	c0-5.5-0.8-5.9-7.8-6.3v-2.7h14.9v55.6c0,5.1,0.4,6.3,7.8,6.3v2.7c-2.7,0-5.1,0-7.8,0c-2.3,0-4.7,0-7,0v-5.1
	c-3.5,3.9-7.4,5.9-12.9,5.9c-12.1,0-18-7.4-18-19.2c0-12.1,4.3-22.7,18.4-22.7c5.1,0,8.6,1.2,12.5,4.7L476.1,126.2L476.1,126.2z
	 M475.7,159.8c0-9-0.8-16-11.3-16c-11.3,0-11.3,11.3-11.3,19.6c0,7,2.3,16,11.3,16s11.3-5.9,11.3-13.7V159.8z M506.2,161.8
	c0,7.8,0,18,11.3,18c9,0,9.4-6.3,10.2-10.2c0-1.6,1.6-1.6,3.1-1.6c1.2,0,2.7,0,2.7,1.6c-1.6,9.4-8.2,12.9-17.2,12.9
	c-14.9,0-17.6-10.2-17.6-23.1c0-11.7,7-18.8,18.8-18.8c13.3,0,17.6,8.6,16.8,21.1h-28.1V161.8z M526.1,158.6
	c0.4-7.8-1.2-15.3-9.8-15.3s-10.2,7.8-10.2,15.3H526.1z M572.2,167.4h4.7c0.8,5.5-0.8,11,8.6,11c4.7,0,10.2-2.3,10.2-7.8
	s-5.5-6.7-11-7.8s-11-3.1-11-10.2c0-9.8,7-12.9,16-12.9c3.5,0,7.4,0.8,11,2.3v10.2H596c-0.8-6.3,0-9.4-7.4-9.4
	c-6.7,0.4-8.2,2.7-8.2,7.8c0,2.3,2,4.7,5.1,5.5c7.4,2.3,17.2,2.7,17.2,12.9c0,11.3-10.6,12.9-19.6,12.9c-3.5,0-7-0.8-10.2-2.3v-12.1
	L572.2,167.4L572.2,167.4z M553.4,144.9v24.6c0,4.3,0.4,9.4,5.9,9.4c1.6,0,2.7-0.4,4.3-0.8l1.6-0.8l1.2,2.3c-2.7,1.2-7,2.3-10.2,2.3
	c-9,0-9.4-6.3-9.4-13.3v-24.3h-6.7v-3.1h6.7v-11.7l7-3.1V141h9.8v3.1h-10.2L553.4,144.9L553.4,144.9z M635.3,150
	c0-4.7-3.1-6.3-8.2-6.3c-7.4,0-7.8,3.1-7.8,8.2c0,2-2,2.3-3.9,2.3c-2.3,0-3.1-2-2.7-4.3c0.8-7.8,9-9,15.3-9
	c10.6,0,14.1,3.5,14.1,13.7v18.8c0,5.5,0.8,5.9,7,5.9v2.7c-1.6,0-4.3,0-7,0c-2.3,0-4.7,0-6.7,0v-3.5c-3.1,2.7-7,3.9-11,3.9
	c-9,0-14.1-2.7-14.1-12.1c0-13.3,14.9-11.3,24.6-11.3v-9L635.3,150L635.3,150z M630.6,161.8c-7,0-12.1,0.8-12.1,9
	c0,5.1,2,8.6,7.4,8.6c7.4,0,9.4-2.7,9.4-9.4v-8.2L630.6,161.8L630.6,161.8z M690.9,141h1.2v3.5l-7.4-0.4c2.3,2.7,3.5,6.3,3.5,10.2
	c0,10.2-8.6,14.1-18,14.1c-5.5-0.4-7.4-1.6-8.6-2c-1.6,5.1-0.8,9.4,4.3,9.4c3.9,0,7.4-0.4,11-0.4c8.6,0,15.3,2,15.3,11.7
	c0,10.6-11,15.7-20.3,15.7c-7,0-19.2-1.6-19.2-11c0-5.5,2.3-7.8,6.7-10.6c-2.7-5.1-2-11,0-16c-3.1-2.7-4.7-6.3-4.7-10.6
	c0-9.4,7.4-14.5,16.4-14.5c3.5,0,7,0.4,10.2,1.6L690.9,141z M662.3,182.1c-2.3,3.5-3.9,7-3.1,11c1.6,5.5,7.8,7.4,13.3,7.4
	c7,0,17.2-5.9,12.9-14.9c-2-3.5-5.9-3.5-9.4-3.1h-13.7V182.1z M680.7,154.7c0-5.9-2-11.3-9.4-11.3c-7,0-9.4,4.7-9.4,11.3
	c0,6.7,2.3,11.3,9.4,11.3C678.3,166.1,680.7,161.4,680.7,154.7z"/>
<path d="M186.3,111.7c-0.8,4.6-2.1,11.1-3.9,19.3c0,0,24.2-23.4,24.4-23.6c-9.3-6.9-16.7,0.8-17.2,1
	C189.6,108.4,188.1,109.9,186.3,111.7 M165.5,95.8c0-2.3-2.1-4.4-4.4-4.4s-4.4,2.1-4.4,4.4v18c3.1-2.8,6.2-5.4,8.7-7.5
	C165.5,106.3,165.5,95.8,165.5,95.8z M181.4,135.9c-1.3,6.2-3.1,12.9-4.9,20.3c0,0,39.6-36.8,39.8-37c-9.8-6.4-17,0-17.7,0.8
	C197.6,120.5,189.1,128.4,181.4,135.9 M204.8,133.8c-0.8,0.5-19,17.5-29.8,27.2c-1,3.6-2.1,7.5-3.3,11.6c0.8,0.5,1.8,1.5,3.1,2.6
	c0,0,47.3-41.1,47.8-41.4C213.3,126.1,205.3,133.3,204.8,133.8 M133.1,95.8c0-2.3-2.1-4.4-4.4-4.4c-2.3,0-4.4,2.1-4.4,4.4v10.5
	c2.6,2.1,5.4,4.6,8.7,7.5V95.8z M143.9,96c0-2.3-2.1-4.4-4.4-4.4c-2.3,0-4.4,2.1-4.4,4.4v19.5c2.8,2.6,5.9,5.4,8.7,8.2V96z
	 M154.7,96c0-2.3-2.1-4.4-4.4-4.4c-2.3,0-4.4,2.1-4.4,4.4v27.5c2.8-2.8,5.9-5.7,8.7-8.2C154.7,115.3,154.7,96,154.7,96z
	 M227.2,169.8c-9-8-17.5-1.5-18-1c-0.8,0.8-17.5,13.9-26.7,21.6c0.3,1,0.3,2.1,0.3,3.1v1.8v9.8C200.2,191.4,226.9,170.1,227.2,169.8
	 M117.9,172.4c-1-3.9-2.3-7.7-3.3-11.6c-10.8-10-29-26.7-29.8-27.2c-0.5-0.5-8.5-7.7-17.7,0c0.3,0.3,47.8,41.4,47.8,41.4
	C116.1,173.9,117.2,173.2,117.9,172.4 M108.4,135.9c-7.7-7.5-16.2-15.4-17.2-16.2c-0.8-0.8-8-7.2-17.7-0.8c0.3,0.3,39.8,37,39.8,37
	C111.5,148.7,110,141.8,108.4,135.9 M113,177c-10.3-9-30.8-26.5-32.6-27.8c-0.8-0.5-8.7-6.4-17.5,1c0.3,0.3,45,36.8,45,36.8
	C108.9,182.9,111,179.6,113,177 M209.4,149.2c-1.8,1.3-22.4,19-32.6,27.8c2.1,2.6,3.9,5.9,5.1,10c0,0,44.7-36.5,45-36.8
	C218.2,142.8,210.2,148.7,209.4,149.2 M103.5,111.7c-1.8-1.8-3.3-3.3-3.3-3.3c-0.3-0.3-8-8-17.2-1c0.3,0.3,24.4,23.6,24.4,23.6
	C105.6,122.8,104.3,116.1,103.5,111.7 M95.1,99.6c1,0.5,9.3,4.6,9.3,4.6c3.3,18.8,6.9,34.4,10,46c1.8,7.2,3.6,15.2,5.7,23.1
	c-2.6,1.8-10.5,8-10.8,19.8c0,0,0,1,0,1.8v15.7l-45-35c0.8,4.1,6.2,21.8,24.4,39.3c0,0,15.4,14.7,24.9,14.7c1.5,0,8.7-0.5,8.7-10.8
	v-18.2c0,0,0-3.9,3.1-3.9h0.8c1.8,6.2,3.6,12.6,5.7,18.8c0.3,0.8,0.5,1.5,0.8,2.3c2.6,8.5,6.4,11.1,9.3,12.3c1.8,1,4.6,1.5,8.5,1.5
	c10-0.3,11.8-4.1,12.1-5.4c0.3-2.3-0.5-5.1-0.8-6.2c0,0.8,0,1.5-0.8,2.6c-0.8,0.8-2.1,1.5-3.9,1.5h-7.2c0,0-1,0-1-0.8
	c0-0.8,1-0.8,1-0.8h6.7c1.5,0,2.6-0.3,3.1-1l0.3-0.3h-0.3c-0.5,0-1,0-1.5,0c-1-0.3-3.6-1-3.6-3.3c0-0.3,0-0.8,0.3-1
	c2.6-6.9,5.1-13.9,7.5-20.6h2.6c3.1,0,3.1,3.9,3.1,3.9v18.5c0,10.3,7.2,10.8,8.7,10.8c9.5,0,24.9-14.7,24.9-14.7
	c18.2-17.5,23.6-35.2,24.4-39.3l-45.2,35v-15.4c0-0.8,0-1.8,0-1.8c-0.3-12.9-9.3-19-11.3-20c11.8-39.8,16.4-68.9,16.4-68.9
	s8-4.1,9.3-4.6c0,0,2.6-1,1.3-3.6c0,0-0.5-1.3-1.8-1.5c0,0,1,1.8-0.3,2.3l-7.2,3.1c0,0,3.3-4.4,4.1-5.4c0,0,1.8-2.1-0.5-3.9
	c0,0-1-1-2.3-0.5c0,0,1.8,1,0.8,2.1l-5.7,6.2c0,0,1.5-4.9,2.1-6.2c0,0,1-2.6-1.5-3.6c0,0-1.3-0.5-2.3,0c0,0,2.1,0.5,1.5,1.8
	l-1.5,3.3c0,0-1.3,3.3-3.3,3.6l-1,0.3c-4.1,0.5-5.9,0-5.9,0c-1.5-0.5-0.5-2.6-0.5-2.6c-1.5,0.5-1.8,1.8-1.8,1.8
	c-0.8,2.8,1.8,3.9,2.1,4.1c1.3,0.5,2.3,1,2.3,1s-16.4,12.6-28.8,25.4c-12.6-12.9-28.8-25.4-28.8-25.4s1-0.5,2.3-1
	c0,0,2.8-1.3,2.1-4.1c0,0-0.5-1.5-1.8-1.8c0,0,1,2.1-0.5,2.6c0,0-1.8,0.5-5.9,0l-1-0.3c-2.1-0.3-3.3-3.6-3.3-3.6l-1.5-3.6
	c-0.5-1.3,1.5-1.8,1.5-1.8c-1-0.8-2.3,0-2.3,0c-2.6,1-1.5,3.6-1.5,3.6c0.5,1.3,2.1,6.2,2.1,6.2l-5.7-6.2c-1-1,0.8-2.1,0.8-2.1
	c-1.3-0.3-2.3,0.5-2.3,0.5c-2.1,1.8-0.5,3.9-0.3,3.9c0.8,1,4.1,5.4,4.1,5.4l-7.2-3.1c-1.3-0.5-0.3-2.3-0.3-2.3
	c-1.3,0.3-1.8,1.5-1.8,1.5C92.5,98.6,95.1,99.6,95.1,99.6 M151.3,226.4c1,0,1.8,0.8,1.8,1.8c0,1-0.8,1.8-1.8,1.8s-1.8-0.8-1.8-1.8
	C149.3,227.1,150.3,226.4,151.3,226.4 M169.6,190.9c0,0.5,0,0.8-0.3,1.3c-0.3-0.8-1-1.3-2.1-1.3c-0.8,0-1.5,0.5-2.1,1.3
	c-0.3-0.3-0.3-0.8-0.3-1.3c0-1.5,1-2.8,2.3-2.8S169.6,189.3,169.6,190.9 M169.3,151.8c-0.3-0.8-1-1.3-2.1-1.3
	c-0.8,0-1.5,0.5-2.1,1.3c-0.3-0.3-0.3-0.8-0.3-1.3c0-1.5,1-2.8,2.3-2.8s2.3,1.3,2.3,2.8C169.6,151,169.6,151.6,169.3,151.8
	 M174.7,117.6c1.3,0,2.3,1.3,2.3,2.8c0,0.5,0,0.8-0.3,1.3c-0.3-0.8-1-1.3-2.1-1.3c-0.8,0-1.5,0.5-2.1,1.3c-0.3-0.3-0.3-0.8-0.3-1.3
	C172.4,118.9,173.4,117.6,174.7,117.6 M167.3,127.7c1.3,0,2.3,1.3,2.3,2.8c0,0.5,0,0.8-0.3,1.3c-0.3-0.8-1-1.3-2.1-1.3
	c-0.8,0-1.5,0.5-2.1,1.3c-0.3-0.3-0.3-0.8-0.3-1.3C165.2,128.9,166.3,127.7,167.3,127.7 M163.4,117.6c1.3,0,2.3,1.3,2.3,2.8
	c0,0.5,0,0.8-0.3,1.3c-0.3-0.8-1-1.3-2.1-1.3c-0.8,0-1.5,0.5-2.1,1.3c-0.3-0.3-0.3-0.8-0.3-1.3C161.4,118.9,162.1,117.6,163.4,117.6
	 M161.9,137.7c1.3,0,2.3,1.3,2.3,2.8c0,0.5,0,0.8-0.3,1.3c-0.3-0.8-1-1.3-2.1-1.3c-0.8,0-1.5,0.5-2.1,1.3c-0.3-0.3-0.3-0.8-0.3-1.3
	C159.6,139,160.6,137.7,161.9,137.7 M161.9,157.7c1.3,0,2.3,1.3,2.3,2.8c0,0.5,0,0.8-0.3,1.3c-0.3-0.8-1-1.3-2.1-1.3
	c-0.8,0-1.5,0.5-2.1,1.3c-0.3-0.3-0.3-0.8-0.3-1.3C159.6,159,160.6,157.7,161.9,157.7 M161.9,178c1.3,0,2.3,1.3,2.3,2.8
	c0,0.5,0,0.8-0.3,1.3c-0.3-0.8-1-1.3-2.1-1.3c-0.8,0-1.5,0.5-2.1,1.3c-0.3-0.3-0.3-0.8-0.3-1.3C159.6,179.3,160.6,178,161.9,178
	 M156.2,127.7c1.3,0,2.3,1.3,2.3,2.8c0,0.5,0,0.8-0.3,1.3c-0.3-0.8-1-1.3-2.1-1.3c-0.8,0-1.5,0.5-2.1,1.3c-0.3-0.3-0.3-0.8-0.3-1.3
	C153.9,128.9,154.9,127.7,156.2,127.7 M156.2,147.7c1.3,0,2.3,1.3,2.3,2.8c0,0.5,0,0.8-0.3,1.3c-0.3-0.8-1-1.3-2.1-1.3
	c-0.8,0-1.5,0.5-2.1,1.3c-0.3-0.3-0.3-0.8-0.3-1.3C153.9,149,154.9,147.7,156.2,147.7 M156.2,167.8c1.3,0,2.3,1.3,2.3,2.8
	c0,0.5,0,0.8-0.3,1.3c-0.3-0.8-1-1.3-2.1-1.3c-0.8,0-1.5,0.5-2.1,1.3c-0.3-0.3-0.3-0.8-0.3-1.3C153.9,169,154.9,167.8,156.2,167.8
	 M156.2,188.1c1.3,0,2.3,1.3,2.3,2.8c0,0.5,0,0.8-0.3,1.3c-0.3-0.8-1-1.3-2.1-1.3c-0.8,0-1.5,0.5-2.1,1.3c-0.3-0.3-0.3-0.8-0.3-1.3
	C153.9,189.3,154.9,188.1,156.2,188.1 M150.6,137.7c1.3,0,2.3,1.3,2.3,2.8c0,0.5,0,0.8-0.3,1.3c-0.3-0.8-1-1.3-2.1-1.3
	c-0.8,0-1.5,0.5-2.1,1.3c-0.3-0.3-0.3-0.8-0.3-1.3C148.3,139,149.3,137.7,150.6,137.7 M150.6,157.7c1.3,0,2.3,1.3,2.3,2.8
	c0,0.5,0,0.8-0.3,1.3c-0.3-0.8-1-1.3-2.1-1.3c-0.8,0-1.5,0.5-2.1,1.3c-0.3-0.3-0.3-0.8-0.3-1.3C148.3,159,149.3,157.7,150.6,157.7
	 M150.6,178c1.3,0,2.3,1.3,2.3,2.8c0,0.5,0,0.8-0.3,1.3c-0.3-0.8-1-1.3-2.1-1.3c-0.8,0-1.5,0.5-2.1,1.3c-0.3-0.3-0.3-0.8-0.3-1.3
	C148.3,179.3,149.3,178,150.6,178 M150.6,198.1c1.3,0,2.3,1.3,2.3,2.8c0,0.5,0,0.8-0.3,1.3c-0.3-0.8-1-1.3-2.1-1.3
	c-0.8,0-1.5,0.5-2.1,1.3c-0.3-0.3-0.3-0.8-0.3-1.3C148.3,199.4,149.3,198.1,150.6,198.1 M144.9,147.7c1.3,0,2.3,1.3,2.3,2.8
	c0,0.5,0,0.8-0.3,1.3c-0.3-0.8-1-1.3-2.1-1.3c-0.8,0-1.5,0.5-2.1,1.3c-0.3-0.3-0.3-0.8-0.3-1.3C142.6,149,143.6,147.7,144.9,147.7
	 M144.9,167.8c1.3,0,2.3,1.3,2.3,2.8c0,0.5,0,0.8-0.3,1.3c-0.3-0.8-1-1.3-2.1-1.3c-0.8,0-1.5,0.5-2.1,1.3c-0.3-0.3-0.3-0.8-0.3-1.3
	C142.6,169,143.6,167.8,144.9,167.8 M144.9,188.1c1.3,0,2.3,1.3,2.3,2.8c0,0.5,0,0.8-0.3,1.3c-0.3-0.8-1-1.3-2.1-1.3
	c-0.8,0-1.5,0.5-2.1,1.3c-0.3-0.3-0.3-0.8-0.3-1.3C142.6,189.3,143.6,188.1,144.9,188.1 M124.4,192.2c-0.3-0.8-1-1.3-2.1-1.3
	c-0.8,0-1.5,0.5-2.1,1.3c-0.3-0.3-0.3-0.8-0.3-1.3c0-1.5,1-2.8,2.1-2.8c1.3,0,2.1,1.3,2.1,2.8C124.6,191.1,124.6,191.7,124.4,192.2
	 M124.4,151.8c-0.3-0.8-1-1.3-2.1-1.3c-0.8,0-1.5,0.5-2.1,1.3c-0.3-0.3-0.3-0.8-0.3-1.3c0-1.5,1-2.8,2.1-2.8c1.3,0,2.1,1.3,2.1,2.8
	C124.6,151,124.6,151.6,124.4,151.8 M130,182.1c-0.3-0.8-1-1.3-2.1-1.3c-0.8,0-1.5,0.5-2.1,1.3c-0.3-0.3-0.3-0.8-0.3-1.3
	c0-1.5,1-2.8,2.3-2.8s2.3,1.3,2.3,2.8C130.3,181.4,130.3,181.6,130,182.1 M130,161.8c-0.3-0.8-1-1.3-2.1-1.3c-0.8,0-1.5,0.5-2.1,1.3
	c-0.3-0.3-0.3-0.8-0.3-1.3c0-1.5,1-2.8,2.3-2.8s2.3,1.3,2.3,2.8C130.3,161.1,130.3,161.6,130,161.8 M139.3,137.7
	c1.3,0,2.3,1.3,2.3,2.8c0,0.5,0,0.8-0.3,1.3c-0.3-0.8-1-1.3-2.1-1.3c-0.8,0-1.5,0.5-2.1,1.3c-0.3-0.3-0.3-0.8-0.3-1.3
	C136.9,139,138,137.7,139.3,137.7 M139.3,157.7c1.3,0,2.3,1.3,2.3,2.8c0,0.5,0,0.8-0.3,1.3c-0.3-0.8-1-1.3-2.1-1.3
	c-0.8,0-1.5,0.5-2.1,1.3c-0.3-0.3-0.3-0.8-0.3-1.3C136.9,159,138,157.7,139.3,157.7 M139.3,178c1.3,0,2.3,1.3,2.3,2.8
	c0,0.5,0,0.8-0.3,1.3c-0.3-0.8-1-1.3-2.1-1.3c-0.8,0-1.5,0.5-2.1,1.3c-0.3-0.3-0.3-0.8-0.3-1.3C136.9,179.3,138,178,139.3,178
	 M139.3,198.1c1.3,0,2.3,1.3,2.3,2.8c0,0.5,0,0.8-0.3,1.3c-0.3-0.8-1-1.3-2.1-1.3c-0.8,0-1.5,0.5-2.1,1.3c-0.3-0.3-0.3-0.8-0.3-1.3
	C136.9,199.4,138,198.1,139.3,198.1 M133.6,127.7c1.3,0,2.3,1.3,2.3,2.8c0,0.5,0,0.8-0.3,1.3c-0.3-0.8-1-1.3-2.1-1.3
	c-0.8,0-1.5,0.5-2.1,1.3c-0.3-0.3-0.3-0.8-0.3-1.3C131.6,128.9,132.3,127.7,133.6,127.7 M133.6,147.7c1.3,0,2.3,1.3,2.3,2.8
	c0,0.5,0,0.8-0.3,1.3c-0.3-0.8-1-1.3-2.1-1.3c-0.8,0-1.5,0.5-2.1,1.3c-0.3-0.3-0.3-0.8-0.3-1.3C131.6,149,132.3,147.7,133.6,147.7
	 M133.6,167.8c1.3,0,2.3,1.3,2.3,2.8c0,0.5,0,0.8-0.3,1.3c-0.3-0.8-1-1.3-2.1-1.3c-0.8,0-1.5,0.5-2.1,1.3c-0.3-0.3-0.3-0.8-0.3-1.3
	C131.6,169,132.3,167.8,133.6,167.8 M133.6,188.1c1.3,0,2.3,1.3,2.3,2.8c0,0.5,0,0.8-0.3,1.3c-0.3-0.8-1-1.3-2.1-1.3
	c-0.8,0-1.5,0.5-2.1,1.3c-0.3-0.3-0.3-0.8-0.3-1.3C131.6,189.3,132.3,188.1,133.6,188.1 M130.3,140.5c0,0.5,0,0.8-0.3,1.3
	c-0.3-0.8-1-1.3-2.1-1.3c-0.8,0-1.5,0.5-2.1,1.3c-0.3-0.3-0.3-0.8-0.3-1.3c0-1.5,1-2.8,2.3-2.8S130.3,139,130.3,140.5 M126.4,117.6
	c1.3,0,2.3,1.3,2.3,2.8c0,0.5,0,0.8-0.3,1.3c-0.3-0.8-1-1.3-2.1-1.3c-0.8,0-1.5,0.5-2.1,1.3c-0.3-0.3-0.3-0.8-0.3-1.3
	C124.1,118.9,125.1,117.6,126.4,117.6 M122.6,127.7c1.3,0,2.3,1.3,2.3,2.8c0,0.5,0,0.8-0.3,1.3c-0.3-0.8-1-1.3-2.1-1.3
	c-0.8,0-1.5,0.5-2.1,1.3c-0.3-0.3-0.3-0.8-0.3-1.3C120.2,128.9,121.3,127.7,122.6,127.7 M115.1,117.6c1.3,0,2.3,1.3,2.3,2.8
	c0,0.5,0,0.8-0.3,1.3c-0.3-0.8-1-1.3-2.1-1.3c-0.8,0-1.5,0.5-2.1,1.3c-0.3-0.3-0.3-0.8-0.3-1.3C112.8,118.9,113.8,117.6,115.1,117.6
	 M107.1,195.3v-1.8c0-1,0-2.3,0.3-3.1c-9.3-7.5-26-20.8-26.7-21.6c-0.5-0.5-9-6.9-18,1c0.3,0.3,27,21.6,44.5,35.2V195.3z"/>
</svg>
